<svg width="20" height="20" viewBox="0 0 20 20" fill="none" xmlns="http://www.w3.org/2000/svg">
<path d="M11.9976 2.6831L11.5273 3.09467L11.9976 2.6831ZM16.5052 7.83457L16.9755 7.42301L16.5052 7.83457ZM11.625 2C11.625 1.65482 11.3452 1.375 11 1.375C10.6548 1.375 10.375 1.65482 10.375 2H11.625ZM8 12.3751C7.65482 12.3751 7.375 12.6549 7.375 13.0001C7.375 13.3453 7.65482 13.6251 8 13.6251V12.3751ZM12 13.6251C12.3452 13.6251 12.625 13.3453 12.625 13.0001C12.625 12.6549 12.3452 12.3751 12 12.3751V13.6251ZM10.625 11.0001C10.625 10.6549 10.3452 10.3751 10 10.3751C9.65482 10.3751 9.375 10.6549 9.375 11.0001H10.625ZM9.375 15.0001C9.375 15.3453 9.65482 15.6251 10 15.6251C10.3452 15.6251 10.625 15.3453 10.625 15.0001H9.375ZM16.375 9.15158V12.4001H17.625V9.15158H16.375ZM16.375 12.4001C16.375 14.3541 16.0275 15.5625 15.3921 16.2885C14.7757 16.9931 13.7684 17.3751 12.1 17.3751V18.6251C13.9316 18.6251 15.3743 18.2071 16.3329 17.1117C17.2725 16.0378 17.625 14.4461 17.625 12.4001H16.375ZM12.1 17.3751H7.9V18.6251H12.1V17.3751ZM7.9 17.3751C6.23159 17.3751 5.22434 16.9931 4.60786 16.2885C3.97254 15.5625 3.625 14.3541 3.625 12.4001H2.375C2.375 14.4461 2.72746 16.0378 3.66714 17.1117C4.62566 18.2071 6.06841 18.6251 7.9 18.6251V17.3751ZM3.625 12.4001V7.60011H2.375V12.4001H3.625ZM3.625 7.60011C3.625 5.64612 3.97254 4.43776 4.60786 3.71168C5.22434 3.00713 6.23159 2.62511 7.9 2.62511V1.37511C6.06841 1.37511 4.62566 1.79309 3.66714 2.88855C2.72746 3.96246 2.375 5.5541 2.375 7.60011H3.625ZM7.9 2.62511H10.4925V1.37511H7.9V2.62511ZM16.9755 7.42301L12.468 2.27154L11.5273 3.09467L16.0348 8.24614L16.9755 7.42301ZM10.4925 2.62511C10.889 2.62511 11.2662 2.79627 11.5273 3.09467L12.468 2.27154C11.9695 1.70187 11.2494 1.37511 10.4925 1.37511V2.62511ZM17.625 9.15158C17.625 8.51575 17.3942 7.90152 16.9755 7.42301L16.0348 8.24614C16.2541 8.49679 16.375 8.81852 16.375 9.15158H17.625ZM17 8.375H13.5V9.625H17V8.375ZM13.5 8.375C12.6217 8.375 12.2367 8.19521 12.027 7.94363C11.7881 7.65693 11.625 7.10707 11.625 6H10.375C10.375 7.14293 10.5244 8.09307 11.0667 8.74387C11.6383 9.42979 12.5033 9.625 13.5 9.625V8.375ZM11.625 6V2H10.375V6H11.625ZM8 13.6251H12V12.3751H8V13.6251ZM9.375 11.0001V15.0001H10.625V11.0001H9.375Z" fill="currentColor"/>
</svg>
