<svg width="20" height="20" viewBox="0 0 20 20" fill="none" xmlns="http://www.w3.org/2000/svg">
<path d="M18 10C18 14.4182 14.4182 18 10 18C8.72024 18 7.5107 17.6995 6.43802 17.1652C6.15297 17.0233 5.82714 16.976 5.51951 17.0583L3.73868 17.5348C2.96561 17.7416 2.25836 17.0344 2.46521 16.2614L2.9417 14.4805C3.02401 14.1729 2.97675 13.847 2.83477 13.562C2.3005 12.4893 2 11.2798 2 10C2 5.58172 5.58172 2 10 2" stroke="#1F2329" stroke-width="1.25" stroke-linecap="round"/>
<path d="M14.016 2.32421C14.1952 1.89185 14.8076 1.89196 14.9867 2.32437L15.2204 2.88862C15.5759 3.74675 16.2575 4.42857 17.1155 4.78419L17.6757 5.01642C18.1082 5.19567 18.1081 5.80834 17.6756 5.98744L17.1115 6.22103C16.2526 6.57667 15.5704 7.25915 15.2149 8.11816L14.9842 8.67546C14.8051 9.10826 14.1922 9.10815 14.0132 8.67529L13.781 8.1136C13.4256 7.25388 12.7428 6.57085 11.8834 6.21512L11.3245 5.98382C10.8919 5.80476 10.8918 5.19193 11.3243 5.01273L11.8886 4.77896C12.7464 4.42357 13.4281 3.74209 13.7837 2.88428L14.016 2.32421Z" fill="#1F2329"/>
</svg>
