<svg width="20" height="20" viewBox="0 0 20 20" fill="none" xmlns="http://www.w3.org/2000/svg">
<path d="M4.15493 2.23158C4.28302 1.92275 4.72057 1.92283 4.84856 2.2317L5.01555 2.63473C5.26953 3.24768 5.75656 3.73469 6.36957 3.98871L6.7699 4.15459C7.07888 4.28262 7.0788 4.72025 6.76978 4.84817L6.36672 5.01503C5.75307 5.26905 5.26558 5.75653 5.01158 6.37011L4.8468 6.76819C4.71882 7.07733 4.28084 7.07725 4.15298 6.76807L3.98705 6.36685C3.7331 5.75277 3.24529 5.2649 2.63118 5.0108L2.23187 4.84558C1.92277 4.71769 1.92269 4.27995 2.23175 4.15195L2.63492 3.98497C3.24784 3.73112 3.73488 3.24435 3.98901 2.63163L4.15493 2.23158Z" fill="currentColor"/>
<path d="M11.2792 4.6387C11.6095 6.68165 13.3302 8.24347 15.4656 8.45072M12.3285 3.56521L3.30907 12.7104C3.07095 12.9547 2.8405 13.4358 2.79441 13.7689L2.51019 16.1671C2.41033 17.0332 3.05558 17.6253 3.94664 17.4773L6.4201 17.0702C6.76577 17.011 7.24971 16.7667 7.48783 16.515L16.5073 7.36984C17.598 6.25954 18.0897 4.99379 16.392 3.44678C14.7021 1.91456 13.4193 2.45491 12.3285 3.56521Z" stroke="currentColor" stroke-width="1.25" stroke-miterlimit="10" stroke-linecap="round" stroke-linejoin="round"/>
</svg>
