<svg width="20" height="20" viewBox="0 0 20 20" fill="none" xmlns="http://www.w3.org/2000/svg">
<path d="M7.87228 3.76748C8.27586 2.74417 9.72411 2.74417 10.1277 3.76749L11.3783 6.93865C11.5015 7.25107 11.7489 7.49838 12.0613 7.62159L15.2325 8.87228C16.2558 9.27586 16.2558 10.7241 15.2325 11.1277L12.0613 12.3783C11.7489 12.5015 11.5015 12.7489 11.3783 13.0613L10.1277 16.2325C9.7241 17.2558 8.27586 17.2558 7.87228 16.2325L6.62159 13.0613C6.49836 12.7489 6.25107 12.5015 5.93865 12.3783L2.76748 11.1277C1.74417 10.7241 1.74417 9.27586 2.76749 8.87228L5.93865 7.62159C6.25107 7.49836 6.49838 7.25107 6.62159 6.93865L7.87228 3.76748Z" stroke="#1F2329" stroke-width="1.25"/>
<path fill-rule="evenodd" clip-rule="evenodd" d="M16.2788 1.18536C16.1765 0.93826 15.8264 0.9382 15.7239 1.18526L15.5912 1.5053C15.3879 1.99548 14.9983 2.3849 14.5079 2.58798L14.1854 2.72156C13.9382 2.82396 13.9382 3.17415 14.1855 3.27647L14.5049 3.40864C14.9962 3.61192 15.3865 4.00222 15.5896 4.49348L15.7224 4.81445C15.8247 5.0618 16.1751 5.06186 16.2774 4.81455L16.4093 4.49609C16.6125 4.00523 17.0025 3.61524 17.4934 3.41202L17.8158 3.27854C18.063 3.1762 18.0631 2.8261 17.8159 2.72367L17.4957 2.59096C17.0053 2.38775 16.6156 1.99814 16.4124 1.50778L16.2788 1.18536ZM16.2788 15.1854C16.1765 14.9383 15.8264 14.9382 15.7239 15.1853L15.5912 15.5053C15.3879 15.9955 14.9983 16.3849 14.5079 16.588L14.1854 16.7216C13.9382 16.824 13.9382 17.1742 14.1855 17.2765L14.5049 17.4086C14.9962 17.6119 15.3865 18.0022 15.5896 18.4935L15.7224 18.8145C15.8247 19.0618 16.1751 19.0619 16.2774 18.8145L16.4093 18.4961C16.6125 18.0052 17.0025 17.6152 17.4934 17.412L17.8158 17.2785C18.063 17.1762 18.0631 16.8261 17.8159 16.7237L17.4957 16.591C17.0053 16.3878 16.6156 15.9981 16.4124 15.5078L16.2788 15.1854Z" fill="#1F2329"/>
</svg>
