<svg width="20" height="20" viewBox="0 0 20 20" fill="none" xmlns="http://www.w3.org/2000/svg">
<path d="M13.2 6.8V10.8C13.2 11.4365 13.4529 12.047 13.9029 12.4971C14.353 12.9471 14.9635 13.2 15.6 13.2C16.2365 13.2 16.847 12.9471 17.2971 12.4971C17.7471 12.047 18 11.4365 18 10.8V10C18 8.19785 17.3915 6.44848 16.2731 5.03534C15.1547 3.6222 13.592 2.62807 11.838 2.21401C10.0841 1.79996 8.24171 1.99025 6.60942 2.75405C4.97713 3.51784 3.65054 4.8104 2.84459 6.4223C2.03864 8.03419 1.80055 9.87099 2.16889 11.6351C2.53723 13.3992 3.49042 14.9873 4.87403 16.142C6.25764 17.2967 7.9906 17.9505 9.79215 17.9973C11.5937 18.0441 13.3583 17.4813 14.8 16.4M6.8 10C6.8 10.8487 7.13714 11.6626 7.73725 12.2627C8.33737 12.8629 9.1513 13.2 9.99999 13.2C10.8487 13.2 11.6626 12.8629 12.2627 12.2627C12.8629 11.6626 13.2 10.8487 13.2 10C13.2 9.1513 12.8629 8.33737 12.2627 7.73725C11.6626 7.13714 10.8487 6.8 9.99999 6.8C9.1513 6.8 8.33737 7.13714 7.73725 7.73725C7.13714 8.33737 6.8 9.1513 6.8 10Z" stroke="#1F2329" stroke-width="1.25" stroke-linecap="round" stroke-linejoin="round"/>
</svg>
