<svg width="20" height="20" viewBox="0 0 20 20" fill="none" xmlns="http://www.w3.org/2000/svg">
<path d="M9.99993 14.5898V4.35742M10 14.5C10 16.433 8.43296 18 6.5 18C4.56704 18 3 16.433 3 14.5C3 12.567 4.56704 11 6.5 11C8.43296 11 10 12.567 10 14.5ZM13.6021 7.81736L11.2979 6.69461C10.9785 6.53909 10.8189 6.46129 10.687 6.36299C10.3455 6.10851 10.112 5.74039 10.0311 5.32884C9.99993 5.17001 9.99993 4.99605 9.99993 4.64819C9.99993 3.82011 9.99993 3.40606 10.1046 3.12462C10.3811 2.38073 11.1463 1.91989 11.9527 2.01157C12.2579 2.04624 12.6379 2.23137 13.3979 2.60171L15.7022 3.72446C16.0215 3.88005 16.1812 3.95785 16.3131 4.05607C16.6546 4.31055 16.8881 4.67868 16.9689 5.09023C17.0002 5.24913 17.0002 5.42302 17.0002 5.77095C17.0002 6.59896 17.0002 7.013 16.8955 7.29444C16.619 8.03834 15.8537 8.49918 15.0473 8.40757C14.7422 8.37282 14.3622 8.18769 13.6021 7.81736Z" stroke="#1F2329" stroke-width="1.25"/>
</svg>
