<svg width="20" height="20" viewBox="0 0 20 20" fill="none" xmlns="http://www.w3.org/2000/svg">
<path d="M14.9008 12.1002V9.95645C14.9008 8.43421 13.6668 7.2002 12.1445 7.2002H7.8569C6.33463 7.2002 5.10059 8.43421 5.10059 9.95645V12.1002C5.10059 14.8064 7.29445 17.0002 10.0007 17.0002C12.707 17.0002 14.9008 14.8064 14.9008 12.1002Z" stroke="currentColor"/>
<path d="M13.1507 7.5502V6.8502C13.1507 5.1105 11.7404 3.7002 10.0007 3.7002C8.26092 3.7002 6.85059 5.1105 6.85059 6.8502V7.5502" stroke="currentColor"/>
<path d="M14.9004 11.3994H17.0004" stroke="currentColor" stroke-linecap="round"/>
<path d="M5.10005 11.3994H3" stroke="currentColor" stroke-linecap="round"/>
<path d="M11.75 4.05L13.5 3" stroke="currentColor" stroke-linecap="round"/>
<path d="M8.25004 4.05L6.5 3" stroke="currentColor" stroke-linecap="round"/>
<path d="M15.9508 15.6L14.5508 15.04" stroke="currentColor" stroke-linecap="round"/>
<path d="M15.9508 7.2002L14.5508 7.7602" stroke="currentColor" stroke-linecap="round"/>
<path d="M4.0498 15.6L5.44984 15.04" stroke="currentColor" stroke-linecap="round"/>
<path d="M4.0498 7.2002L5.44984 7.7602" stroke="currentColor" stroke-linecap="round"/>
<path d="M10 17V12.625" stroke="currentColor" stroke-linecap="round"/>
</svg>
