<svg width="20" height="20" viewBox="0 0 20 20" fill="none" xmlns="http://www.w3.org/2000/svg">
<path d="M6.00002 17V17.625C6.3452 17.625 6.62502 17.3452 6.62502 17H6.00002ZM5.3333 16.3108L4.88408 16.7454L4.88411 16.7454L5.3333 16.3108ZM5.3333 5.28379L5.78252 5.71833L5.78253 5.71832L5.3333 5.28379ZM15.5508 5.71833C15.7908 5.96643 16.1864 5.973 16.4345 5.73301C16.6826 5.49302 16.6892 5.09734 16.4492 4.84925L15.5508 5.71833ZM6.62502 12.8648C6.62502 12.5196 6.3452 12.2398 6.00002 12.2398C5.65484 12.2398 5.37502 12.5196 5.37502 12.8648H6.62502ZM2 16.375C1.65482 16.375 1.375 16.6548 1.375 17C1.375 17.3452 1.65482 17.625 2 17.625V16.375ZM9.44098 16.7205C9.28661 17.0292 9.41176 17.4046 9.72049 17.559C10.0292 17.7134 10.4046 17.5882 10.559 17.2795L9.44098 16.7205ZM14 9L14.559 8.72049C14.4531 8.50875 14.2367 8.375 14 8.375C13.7633 8.375 13.5469 8.50875 13.441 8.72049L14 9ZM17.441 17.2795C17.5954 17.5882 17.9708 17.7134 18.2795 17.559C18.5882 17.4046 18.7134 17.0292 18.559 16.7205L17.441 17.2795ZM6.44922 16.5654L5.7825 15.8763L4.88411 16.7454L5.55083 17.4346L6.44922 16.5654ZM5.78253 15.8763C3.07142 13.0735 3.07143 8.52101 5.78252 5.71833L4.88408 4.84925C1.70424 8.13651 1.70425 13.458 4.88408 16.7454L5.78253 15.8763ZM5.78253 5.71832C8.48235 2.92723 12.8509 2.92722 15.5508 5.71833L16.4492 4.84925C13.258 1.55025 8.07519 1.55025 4.88408 4.84925L5.78253 5.71832ZM6.62502 17V12.8648H5.37502V17H6.62502ZM6.00002 16.375H2V17.625H6.00002V16.375ZM10.559 17.2795L14.559 9.27951L13.441 8.72049L9.44098 16.7205L10.559 17.2795ZM13.441 9.27951L17.441 17.2795L18.559 16.7205L14.559 8.72049L13.441 9.27951ZM11.5 15H16.5V13.75H11.5V15Z" fill="currentColor"/>
</svg>
