<svg width="20" height="20" viewBox="0 0 20 20" fill="none" xmlns="http://www.w3.org/2000/svg">
<path d="M6.57117 16V16.5C6.84731 16.5 7.07117 16.2761 7.07117 16H6.57117ZM5.99969 15.4093L5.64031 15.7569L5.64034 15.7569L5.99969 15.4093ZM5.99969 5.95753L6.35907 6.30516L6.35907 6.30516L5.99969 5.95753ZM14.7832 6.30517C14.9752 6.50364 15.2917 6.5089 15.4902 6.31691C15.6887 6.12492 15.6939 5.80838 15.502 5.6099L14.7832 6.30517ZM7.07117 12.4555C7.07117 12.1794 6.84731 11.9555 6.57117 11.9555C6.29503 11.9555 6.07117 12.1794 6.07117 12.4555H7.07117ZM3.14258 15.5C2.86644 15.5 2.64258 15.7239 2.64258 16C2.64258 16.2761 2.86644 16.5 3.14258 16.5V15.5ZM9.55251 15.7764C9.42901 16.0234 9.52912 16.3237 9.77611 16.4472C10.0231 16.5707 10.3234 16.4706 10.4469 16.2236L9.55251 15.7764ZM13.4283 9.14286L13.8755 8.91925C13.7908 8.74986 13.6177 8.64286 13.4283 8.64286C13.2389 8.64286 13.0658 8.74986 12.9811 8.91925L13.4283 9.14286ZM16.4096 16.2236C16.5331 16.4706 16.8335 16.5707 17.0805 16.4472C17.3275 16.3237 17.4276 16.0234 17.3041 15.7764L16.4096 16.2236ZM6.93053 15.6523L6.35905 15.0616L5.64034 15.7569L6.21181 16.3477L6.93053 15.6523ZM6.35907 15.0617C4.02188 12.6454 4.02188 8.72131 6.35907 6.30516L5.64032 5.6099C2.92813 8.41371 2.92814 12.953 5.64031 15.7569L6.35907 15.0617ZM6.35907 6.30516C8.68724 3.89828 12.455 3.89828 14.7832 6.30517L15.502 5.6099C12.7807 2.7967 8.36152 2.7967 5.64031 5.6099L6.35907 6.30516ZM7.07117 16V12.4555H6.07117V16H7.07117ZM6.57117 15.5H3.14258V16.5H6.57117V15.5ZM10.4469 16.2236L13.8755 9.36646L12.9811 8.91925L9.55251 15.7764L10.4469 16.2236ZM12.9811 9.36646L16.4096 16.2236L17.3041 15.7764L13.8755 8.91925L12.9811 9.36646ZM11.2854 14.25H15.5711V13.25H11.2854V14.25Z" fill="#1F2329"/>
</svg>
