<svg width="20" height="20" viewBox="0 0 20 20" fill="none" xmlns="http://www.w3.org/2000/svg">
<path fill-rule="evenodd" clip-rule="evenodd" d="M10 18C14.4183 18 18 14.4183 18 10C18 5.58172 14.4183 2 10 2C5.58172 2 2 5.58172 2 10C2 14.4183 5.58172 18 10 18ZM12.8228 12.8228C12.5866 13.0591 12.2036 13.0591 11.9674 12.8228L10 10.8554L8.03257 12.8228C7.79635 13.0591 7.41337 13.0591 7.17716 12.8228C6.94095 12.5866 6.94095 12.2036 7.17716 11.9674L9.14459 10L7.17716 8.03257C6.94095 7.79635 6.94095 7.41337 7.17716 7.17716C7.41337 6.94095 7.79635 6.94095 8.03257 7.17716L10 9.14459L11.9674 7.17716C12.2036 6.94095 12.5866 6.94095 12.8228 7.17716C13.0591 7.41337 13.0591 7.79635 12.8228 8.03257L10.8554 10L12.8228 11.9674C13.0591 12.2036 13.0591 12.5866 12.8228 12.8228Z" fill="currentColor"/>
</svg>
