<svg width="20" height="20" viewBox="0 0 20 20" fill="none" xmlns="http://www.w3.org/2000/svg">
<path d="M12 4.66667C12.2498 6.36375 13.5514 7.66117 15.1667 7.83333M12.7911 3.86693L7.65847 9.10195C7.46467 9.30075 7.27712 9.69232 7.23961 9.96341L7.0083 11.9152C6.92702 12.6201 7.45217 13.102 8.17736 12.9815L10.1904 12.6502C10.4717 12.602 10.8656 12.4032 11.0594 12.1984L16.192 6.96336C17.0798 6.05974 17.4799 5.0296 16.0983 3.77054C14.7229 2.52354 13.6789 2.9633 12.7911 3.86693Z" stroke="currentColor" stroke-width="1.25" stroke-miterlimit="10" stroke-linecap="round" stroke-linejoin="round"/>
<path d="M2 4H9" stroke="currentColor" stroke-width="1.25" stroke-linecap="round"/>
<path d="M2 8H5.5" stroke="currentColor" stroke-width="1.25" stroke-linecap="round"/>
<path d="M2 12H4.5" stroke="currentColor" stroke-width="1.25" stroke-linecap="round"/>
<path d="M2 16H11.5" stroke="currentColor" stroke-width="1.25" stroke-linecap="round"/>
<path d="M15.1542 12.2325C15.2823 11.9238 15.7197 11.9238 15.8477 12.2326L16.0146 12.6355C16.2685 13.2483 16.7554 13.7351 17.3682 13.9891L17.7684 14.1549C18.0773 14.2829 18.0772 14.7204 17.7683 14.8482L17.3653 15.015C16.7519 15.269 16.2645 15.7563 16.0106 16.3697L15.8459 16.7676C15.718 17.0767 15.2801 17.0766 15.1523 16.7675L14.9864 16.3664C14.7325 15.7526 14.2449 15.2648 13.631 15.0108L13.2318 14.8457C12.9228 14.7178 12.9227 14.2802 13.2317 14.1522L13.6347 13.9853C14.2474 13.7316 14.7343 13.2449 14.9884 12.6324L15.1542 12.2325Z" fill="currentColor"/>
</svg>
