<svg width="18" height="18" viewBox="0 0 18 18" fill="none" xmlns="http://www.w3.org/2000/svg">
<path d="M5.00016 15C4.81127 15 4.65294 14.9361 4.52516 14.8083C4.39738 14.6806 4.3335 14.5222 4.3335 14.3333C4.3335 14.1444 4.39738 13.9861 4.52516 13.8583C4.65294 13.7306 4.81127 13.6667 5.00016 13.6667H13.0002C13.1891 13.6667 13.3474 13.7306 13.4752 13.8583C13.6029 13.9861 13.6668 14.1444 13.6668 14.3333C13.6668 14.5222 13.6029 14.6806 13.4752 14.8083C13.3474 14.9361 13.1891 15 13.0002 15H5.00016ZM5.46683 12.6667C5.14461 12.6667 4.8585 12.5611 4.6085 12.35C4.3585 12.1389 4.20572 11.8722 4.15016 11.55L3.4835 7.31667C3.46127 7.31667 3.43627 7.31944 3.4085 7.325C3.38072 7.33056 3.35572 7.33333 3.3335 7.33333C3.05572 7.33333 2.81961 7.23611 2.62516 7.04167C2.43072 6.84722 2.3335 6.61111 2.3335 6.33333C2.3335 6.05556 2.43072 5.81944 2.62516 5.625C2.81961 5.43056 3.05572 5.33333 3.3335 5.33333C3.61127 5.33333 3.84738 5.43056 4.04183 5.625C4.23627 5.81944 4.3335 6.05556 4.3335 6.33333C4.3335 6.41111 4.32516 6.48333 4.3085 6.55C4.29183 6.61667 4.27238 6.67778 4.25016 6.73333L6.3335 7.66667L8.41683 4.81667C8.29461 4.72778 8.19461 4.61111 8.11683 4.46667C8.03905 4.32222 8.00016 4.16667 8.00016 4C8.00016 3.72222 8.09738 3.48611 8.29183 3.29167C8.48627 3.09722 8.72238 3 9.00016 3C9.27794 3 9.51405 3.09722 9.7085 3.29167C9.90294 3.48611 10.0002 3.72222 10.0002 4C10.0002 4.16667 9.96127 4.32222 9.8835 4.46667C9.80572 4.61111 9.70572 4.72778 9.5835 4.81667L11.6668 7.66667L13.7502 6.73333C13.7279 6.67778 13.7085 6.61667 13.6918 6.55C13.6752 6.48333 13.6668 6.41111 13.6668 6.33333C13.6668 6.05556 13.7641 5.81944 13.9585 5.625C14.1529 5.43056 14.3891 5.33333 14.6668 5.33333C14.9446 5.33333 15.1807 5.43056 15.3752 5.625C15.5696 5.81944 15.6668 6.05556 15.6668 6.33333C15.6668 6.61111 15.5696 6.84722 15.3752 7.04167C15.1807 7.23611 14.9446 7.33333 14.6668 7.33333C14.6446 7.33333 14.6196 7.33056 14.5918 7.325C14.5641 7.31944 14.5391 7.31667 14.5168 7.31667L13.8502 11.55C13.7946 11.8722 13.6418 12.1389 13.3918 12.35C13.1418 12.5611 12.8557 12.6667 12.5335 12.6667H5.46683Z" fill="url(#paint0_linear_155_7752)"/>
<defs>
<linearGradient id="paint0_linear_155_7752" x1="4" y1="14.6667" x2="16.1114" y2="9.31038" gradientUnits="userSpaceOnUse">
<stop stop-color="#8032FF"/>
<stop offset="0.765" stop-color="#FB3DFF"/>
</linearGradient>
</defs>
</svg>
