<svg xmlns="http://www.w3.org/2000/svg" width="288" height="112" viewBox="0 0 288 112" fill="none">
  <g transform="rotate(-10 54 56)">
    <rect x="14" y="14" width="80" height="84" rx="8" fill="currentColor" fill-opacity="0.04" stroke="currentColor" stroke-width="1.5"/>
    <rect x="24" y="24" width="30" height="4" rx="2" fill="currentColor" fill-opacity="0.6"/>
    <circle cx="27" cy="42" r="2.5" fill="currentColor"/>
    <rect x="34" y="40.5" width="48" height="3" rx="1.5" fill="currentColor" fill-opacity="0.5"/>
    <circle cx="27" cy="55" r="2.5" fill="currentColor"/>
    <rect x="34" y="53.5" width="40" height="3" rx="1.5" fill="currentColor" fill-opacity="0.5"/>
    <circle cx="27" cy="68" r="2.5" fill="currentColor"/>
    <rect x="34" y="66.5" width="44" height="3" rx="1.5" fill="currentColor" fill-opacity="0.5"/>
    <circle cx="27" cy="81" r="2.5" fill="currentColor"/>
    <rect x="34" y="79.5" width="32" height="3" rx="1.5" fill="currentColor" fill-opacity="0.5"/>
  </g>
  <g>
    <rect x="104" y="14" width="80" height="84" rx="8" fill="currentColor" fill-opacity="0.04" stroke="currentColor" stroke-width="1.5"/>
    <path d="M122 62a22 22 0 0 1 44 0" stroke="currentColor" stroke-opacity="0.3" stroke-width="5" stroke-linecap="round"/>
    <path d="M122 62a22 22 0 0 1 38.95 -14.02" stroke="currentColor" stroke-width="5" stroke-linecap="round"/>
    <path d="M137.5 50h7l-4.5 10" stroke="currentColor" stroke-width="1.5" stroke-linecap="round" stroke-linejoin="round"/>
    <circle cx="150" cy="52.4" r="2.4" stroke="currentColor" stroke-width="1.5"/>
    <circle cx="150" cy="57.4" r="2.6" stroke="currentColor" stroke-width="1.5"/>
    <rect x="128" y="72" width="32" height="3" rx="1.5" fill="currentColor" fill-opacity="0.5"/>
    <rect x="134" y="80" width="20" height="3" rx="1.5" fill="currentColor" fill-opacity="0.3"/>
  </g>
  <g transform="rotate(10 234 56)">
    <rect x="194" y="14" width="80" height="84" rx="8" fill="currentColor" fill-opacity="0.04" stroke="currentColor" stroke-width="1.5"/>
    <path d="M194 31h80M194 48h80M194 65h80M194 82h80" stroke="currentColor" stroke-opacity="0.6"/>
    <path d="M221 14v84M248 14v84" stroke="currentColor" stroke-opacity="0.6"/>
    <rect x="200" y="20.5" width="14" height="3" rx="1.5" fill="currentColor"/>
    <rect x="227" y="20.5" width="14" height="3" rx="1.5" fill="currentColor"/>
    <rect x="254" y="20.5" width="14" height="3" rx="1.5" fill="currentColor"/>
  </g>
</svg>
