<svg width="20" height="20" viewBox="0 0 20 20" fill="none" xmlns="http://www.w3.org/2000/svg">
<path d="M17 5.1845C14.41 4.92049 11.8044 4.78448 9.20667 4.78448C7.66667 4.78448 6.12667 4.86449 4.58667 5.02449L3 5.1845M7.27799 4.37609L7.4491 3.32805C7.57355 2.56802 7.66688 2 8.98133 2H11.0191C12.3335 2 12.4347 2.60002 12.5513 3.33605L12.7224 4.37609M15.3274 7.71143L14.8219 15.7677C14.7363 17.0238 14.6663 17.9998 12.4963 17.9998H7.503C5.333 17.9998 5.263 17.0238 5.17745 15.7677L4.67189 7.71143M8.70114 13.6001H11.2911M8.05555 10.4004H11.9444" stroke="currentColor" stroke-width="1.25" stroke-linecap="round" stroke-linejoin="round"/>
</svg>
