<svg width="20" height="20" viewBox="0 0 20 20" fill="none" xmlns="http://www.w3.org/2000/svg">
<path d="M7 10H13M7 7H13M7 13H11M3 8.4C3 5.38301 3 3.87452 3.91122 2.93726C4.82245 2 6.28904 2 9.22222 2H10.7778C13.7109 2 15.1776 2 16.0888 2.93726C17 3.87452 17 5.38301 17 8.4V11.6C17 14.617 17 16.1255 16.0888 17.0627C15.1776 18 13.7109 18 10.7778 18H9.22222C6.28904 18 4.82245 18 3.91122 17.0627C3 16.1255 3 14.617 3 11.6V8.4Z" stroke="currentColor" stroke-width="1.25" stroke-linecap="round"/>
</svg>
