<svg width="20" height="20" viewBox="0 0 20 20" fill="none" xmlns="http://www.w3.org/2000/svg">
<path d="M13.2 13.2H12.575V13.825H13.2V13.2ZM6.8 6.8H6.175V7.425H6.8V6.8ZM5.59961 11.775C5.25443 11.775 4.97461 12.0548 4.97461 12.4C4.97461 12.7452 5.25443 13.025 5.59961 13.025V11.775ZM9.59961 13.025C9.94479 13.025 10.2246 12.7452 10.2246 12.4C10.2246 12.0548 9.94479 11.775 9.59961 11.775V13.025ZM8.22461 10.4C8.22461 10.0548 7.94479 9.775 7.59961 9.775C7.25443 9.775 6.97461 10.0548 6.97461 10.4H8.22461ZM6.97461 14.4C6.97461 14.7452 7.25443 15.025 7.59961 15.025C7.94479 15.025 8.22461 14.7452 8.22461 14.4H6.97461ZM12.575 10.72V14.08H13.825V10.72H12.575ZM12.575 14.08C12.575 15.4184 12.3035 16.1926 11.8481 16.6481C11.3926 17.1035 10.6184 17.375 9.28 17.375V18.625C10.7416 18.625 11.9274 18.3365 12.7319 17.5319C13.5365 16.7274 13.825 15.5416 13.825 14.08H12.575ZM9.28 17.375H5.92V18.625H9.28V17.375ZM5.92 17.375C4.58164 17.375 3.80738 17.1035 3.35194 16.6481C2.8965 16.1926 2.625 15.4184 2.625 14.08H1.375C1.375 15.5416 1.6635 16.7274 2.46806 17.5319C3.27262 18.3365 4.45836 18.625 5.92 18.625V17.375ZM2.625 14.08V10.72H1.375V14.08H2.625ZM2.625 10.72C2.625 9.38164 2.8965 8.60738 3.35194 8.15194C3.80738 7.6965 4.58164 7.425 5.92 7.425V6.175C4.45836 6.175 3.27262 6.4635 2.46806 7.26806C1.6635 8.07262 1.375 9.25836 1.375 10.72H2.625ZM5.92 7.425H9.28V6.175H5.92V7.425ZM9.28 7.425C10.6184 7.425 11.3926 7.6965 11.8481 8.15194C12.3035 8.60738 12.575 9.38164 12.575 10.72H13.825C13.825 9.25836 13.5365 8.07262 12.7319 7.26806C11.9274 6.4635 10.7416 6.175 9.28 6.175V7.425ZM17.375 5.92V9.28H18.625V5.92H17.375ZM17.375 9.28C17.375 10.6184 17.1035 11.3926 16.6481 11.8481C16.1926 12.3035 15.4184 12.575 14.08 12.575V13.825C15.5416 13.825 16.7274 13.5365 17.5319 12.7319C18.3365 11.9274 18.625 10.7416 18.625 9.28H17.375ZM14.08 12.575H13.2V13.825H14.08V12.575ZM13.825 13.2V10.72H12.575V13.2H13.825ZM9.28 6.175H6.8V7.425H9.28V6.175ZM7.425 6.8V5.92H6.175V6.8H7.425ZM7.425 5.92C7.425 4.58164 7.6965 3.80738 8.15194 3.35194C8.60738 2.8965 9.38164 2.625 10.72 2.625V1.375C9.25836 1.375 8.07262 1.6635 7.26806 2.46806C6.4635 3.27262 6.175 4.45836 6.175 5.92H7.425ZM10.72 2.625H14.08V1.375H10.72V2.625ZM14.08 2.625C15.4184 2.625 16.1926 2.8965 16.6481 3.35194C17.1035 3.80738 17.375 4.58164 17.375 5.92H18.625C18.625 4.45836 18.3365 3.27262 17.5319 2.46806C16.7274 1.6635 15.5416 1.375 14.08 1.375V2.625ZM5.59961 13.025H7.59961V11.775H5.59961V13.025ZM7.59961 13.025H9.59961V11.775H7.59961V13.025ZM6.97461 10.4V12.4H8.22461V10.4H6.97461ZM6.97461 12.4V14.4H8.22461V12.4H6.97461Z" fill="#1F2329"/>
</svg>
