<svg width="20" height="20" viewBox="0 0 20 20" fill="none" xmlns="http://www.w3.org/2000/svg">
<path d="M17.5 9.24902H2.5M2.5 6.21233C2.5 5.55039 2.5 5.21946 2.55197 4.94378C2.78095 3.73022 3.73022 2.78095 4.94378 2.55197C5.21946 2.5 5.55039 2.5 6.21233 2.5C6.50233 2.5 6.64733 2.5 6.78664 2.51303C7.38749 2.56918 7.95736 2.80522 8.42191 3.19039C8.52969 3.27965 8.63218 3.38222 8.83724 3.58728L9.24996 4C9.86185 4.61182 10.1678 4.91773 10.5341 5.12155C10.7353 5.23351 10.9489 5.32195 11.1703 5.3851C11.5734 5.5 12.006 5.5 12.8713 5.5H13.1516C15.1259 5.5 16.113 5.5 16.7547 6.07706C16.8137 6.13019 16.8699 6.18634 16.9229 6.24537C17.5 6.88701 17.5 7.87413 17.5 9.84842V11.5C17.5 14.3284 17.5 15.7427 16.6213 16.6213C15.7427 17.5 14.3284 17.5 11.5 17.5H8.5C5.67153 17.5 4.25737 17.5 3.37865 16.6213C2.5 15.7427 2.5 14.3284 2.5 11.5V6.21233Z" stroke="currentColor" stroke-width="1.25" stroke-linecap="round"/>
</svg>
