<svg width="20" height="20" viewBox="0 0 20 20" fill="none" xmlns="http://www.w3.org/2000/svg">
<path d="M5 10.3251L6.1385 9.32888C6.73084 8.81064 7.62359 8.84035 8.1801 9.39685L10.9685 12.1852C11.4151 12.6319 12.1183 12.6928 12.6352 12.3295L12.829 12.1933C13.5727 11.6706 14.579 11.7312 15.2547 12.3393L17.35 14.2251M5 5C3.90326 5.05497 3.2191 5.21901 2.73221 5.70856C2 6.44488 2 7.62989 2 10C2 12.3701 2 13.5552 2.73221 14.2914C3.2191 14.781 3.90326 14.945 5 15M5 10C5 6.93583 5 5.4038 5.95187 4.45187C6.9038 3.5 8.43583 3.5 11.5 3.5C14.5641 3.5 16.0962 3.5 17.0481 4.45187C18 5.4038 18 6.93583 18 10C18 13.0641 18 14.5962 17.0481 15.5481C16.0963 16.5 14.5641 16.5 11.5 16.5C8.43583 16.5 6.9038 16.5 5.95187 15.5481C5 14.5963 5 13.0641 5 10ZM12.8021 7.40001C12.7999 8.40073 13.8819 9.02853 14.7497 8.53002C15.1541 8.29764 15.4031 7.86644 15.4021 7.40001C15.4042 6.39924 14.3222 5.77149 13.4545 6.27001C13.05 6.50233 12.8011 6.93358 12.8021 7.40001Z" stroke="#1F2329" stroke-width="1.25" stroke-linecap="round"/>
</svg>
