<svg width="20" height="20" viewBox="0 0 20 20" fill="none" xmlns="http://www.w3.org/2000/svg">
<path d="M3.63403 14.8203L4.29555 15.9713C4.43301 16.2136 4.63061 16.404 4.86257 16.5424L7.22514 12.4232H2.5C2.5 12.6914 2.56873 12.9597 2.70619 13.202L3.63403 14.8203Z" fill="#0066DA"/>
<path d="M10.0001 7.57697L7.63752 3.4577C7.40555 3.59617 7.20796 3.78655 7.0705 4.02886L2.70619 11.6443C2.57126 11.8814 2.50018 12.1499 2.5 12.4232H7.22514L10.0001 7.57697Z" fill="#00AC47"/>
<path d="M15.1373 16.5424C15.3693 16.404 15.5669 16.2136 15.7043 15.9713L15.9793 15.4953L17.2937 13.202C17.4312 12.9597 17.4999 12.6914 17.4999 12.4232H12.7744L13.7799 14.4136L15.1373 16.5424Z" fill="#EA4335"/>
<path d="M10.0003 7.57697L12.3628 3.45769C12.1309 3.31923 11.8645 3.25 11.5896 3.25H8.4109C8.13598 3.25 7.86966 3.32789 7.6377 3.45769L10.0003 7.57697Z" fill="#00832D"/>
<path d="M12.7748 12.4232H7.22487L4.8623 16.5424C5.09427 16.6809 5.36059 16.7501 5.63551 16.7501H14.3641C14.639 16.7501 14.9054 16.6722 15.1373 16.5424L12.7748 12.4232Z" fill="#2684FC"/>
<path d="M15.1117 7.83659L12.9296 4.02886C12.7921 3.78655 12.5945 3.59617 12.3626 3.4577L10 7.57697L12.7749 12.4232H17.4915C17.4915 12.1549 17.4228 11.8866 17.2853 11.6443L15.1117 7.83659Z" fill="#FFBA00"/>
</svg>
