<svg width="20" height="20" viewBox="0 0 20 20" fill="none" xmlns="http://www.w3.org/2000/svg">
<path d="M2 6V4C2 2.9 2.9 2 4 2H6M14 2H16C17.1 2 18 2.9 18 4V6M18 14V16C18 17.1 17.1 18 16 18H14M6 18H4C2.9 18 2 17.1 2 16V14" stroke="currentColor" stroke-width="1.25" stroke-linecap="round" stroke-linejoin="round"/>
<path d="M4.5 6C4.5 5.44772 4.94772 5 5.5 5H10.5C11.0523 5 11.5 5.44772 11.5 6V9C11.5 9.55228 11.0523 10 10.5 10H5.5C4.94772 10 4.5 9.55228 4.5 9V6Z" stroke="currentColor" stroke-width="1.25" stroke-linecap="round" stroke-linejoin="round"/>
<path d="M8.5 11C8.5 10.4477 8.94772 10 9.5 10H14.5C15.0523 10 15.5 10.4477 15.5 11V14C15.5 14.5523 15.0523 15 14.5 15H9.5C8.94772 15 8.5 14.5523 8.5 14V11Z" stroke="currentColor" stroke-width="1.25" stroke-linecap="round" stroke-linejoin="round"/>
</svg>
