<svg width="20" height="20" viewBox="0 0 20 20" fill="none" xmlns="http://www.w3.org/2000/svg">
<path d="M18 16.5H13.6938V15.1059C13.6938 14.3676 14.0888 13.6927 14.714 13.3626L17.0841 12.1111C17.6185 11.8289 18 11.2839 18 10.6529C18 10.2213 17.9668 9.79793 17.903 9.38543C17.7924 8.67123 17.2184 8.15389 16.5353 8.09611C16.2068 8.06831 15.8746 8.05414 15.5393 8.05414C14.9121 8.05414 14.2959 8.10371 13.6938 8.19934M2 3.5V9.99733M2 9.99733V16.4946M2 9.99733L10.6125 9.99794M10.6125 9.99794V3.50063M10.6125 9.99794V16.4952" stroke="currentColor" stroke-width="1.25" stroke-linecap="round" stroke-linejoin="round"/>
</svg>
