<svg width="20" height="20" viewBox="0 0 20 20" fill="none" xmlns="http://www.w3.org/2000/svg">
<path d="M17.3073 12.2771C17.7433 12.9171 18 13.7024 18 14.551C18 14.8419 17.9698 15.1254 17.9126 15.3981C17.7863 16.0004 17.2607 16.3886 16.6789 16.4451C16.3037 16.4815 15.9236 16.5 15.5394 16.5C14.9122 16.5 14.2959 16.4505 13.6939 16.3548M17.3073 12.2771C17.7433 11.6371 18 10.8518 18 10.0032C18 9.71226 17.9698 9.42883 17.9126 9.15614C17.7863 8.55368 17.2607 8.16556 16.6789 8.10913C16.3037 8.07274 15.9236 8.05414 15.5394 8.05414C14.9122 8.05414 14.2959 8.10371 13.6939 8.19934M17.3073 12.2771H14.9242M2 3.5V9.99733M2 9.99733V16.4946M2 9.99733L10.6123 9.99794M10.6123 9.99794V3.50063M10.6123 9.99794V16.4952" stroke="#1F2329" stroke-width="1.25" stroke-linecap="round" stroke-linejoin="round"/>
</svg>
