<svg width="20" height="20" viewBox="0 0 20 20" fill="none" xmlns="http://www.w3.org/2000/svg">
<path d="M10.4692 14C10.2765 14 10.0917 13.9273 9.9555 13.7979C9.81927 13.6686 9.74273 13.4931 9.74273 13.3101C9.74273 13.1271 9.81927 12.9517 9.9555 12.8223C10.0917 12.6929 10.2765 12.6202 10.4692 12.6202C10.6618 12.6202 10.8466 12.6929 10.9829 12.8223C11.1191 12.9517 11.1956 13.1271 11.1956 13.3101C11.1956 13.4931 11.1191 13.6686 10.9829 13.7979C10.8466 13.9273 10.6618 14 10.4692 14ZM8.50532 8.56588C8.43351 8.56539 8.36263 8.55047 8.29732 8.52212C8.23202 8.49376 8.17377 8.4526 8.12641 8.40134C8.07904 8.35009 8.04364 8.28989 8.02252 8.22471C8.00139 8.15954 7.99503 8.09085 8.00385 8.02318C8.03685 7.75491 8.08935 7.53555 8.16134 7.3651C8.28339 7.08258 8.47326 6.83106 8.7158 6.63058C8.96206 6.41921 9.25061 6.25709 9.56424 6.15388C9.88215 6.05038 10.2161 5.99837 10.5522 6.00004C11.2521 6.00004 11.8346 6.19566 12.3005 6.58737C12.7665 6.97766 13 7.49899 13 8.14947C13 8.44195 12.94 8.70689 12.82 8.94429C12.701 9.18217 12.447 9.47845 12.0586 9.83265C11.6691 10.1873 11.4121 10.4394 11.2846 10.5895C11.1525 10.7489 11.0547 10.9313 10.9966 11.1265C10.9616 11.2362 10.9366 11.3658 10.9231 11.5149C10.8991 11.7665 10.6862 11.9659 10.4202 11.9659C10.3494 11.9655 10.2795 11.9511 10.215 11.9236C10.1504 11.8961 10.0926 11.8562 10.0452 11.8062C9.99787 11.7563 9.96197 11.6976 9.93984 11.6338C9.91771 11.57 9.90983 11.5025 9.91672 11.4356C9.93422 11.2628 9.96071 11.1122 9.99771 10.984C10.0662 10.7395 10.1702 10.5259 10.3092 10.3431C10.4477 10.1598 10.6977 9.89105 11.0591 9.53637C11.4211 9.18217 11.6541 8.92388 11.7591 8.76387C11.8621 8.60291 11.9706 8.34129 11.9706 8.02318C11.9706 7.70506 11.7941 7.44629 11.5566 7.20129C11.3176 6.95629 10.9711 6.83332 10.5167 6.83332C9.62974 6.83332 9.12677 7.26681 9.00878 8.1338C8.97528 8.37785 8.7663 8.56588 8.50732 8.56588H8.50532Z" fill="currentColor"/>
<circle cx="10.5" cy="10.5" r="7.5" stroke="currentColor"/>
</svg>
