<svg width="20" height="20" viewBox="0 0 20 20" fill="none" xmlns="http://www.w3.org/2000/svg">
<path d="M11.4587 11.5102C11.0627 11.8927 10.5322 12.1043 9.98166 12.0996C9.43107 12.0948 8.90439 11.8739 8.51506 11.4846C8.12572 11.0953 7.90488 10.5686 7.90009 10.018C7.89531 9.4674 8.10696 8.93696 8.48948 8.54092M9.11314 5.15309C10.7436 4.95878 12.3929 5.30346 13.8091 6.13448C15.2253 6.96549 16.3306 8.23719 16.9562 9.75536C17.0146 9.91251 17.0146 10.0854 16.9562 10.2425C16.699 10.8662 16.359 11.4524 15.9455 11.9854M13.8351 13.8488C12.9066 14.3988 11.8706 14.7426 10.7975 14.857C9.7244 14.9713 8.63924 14.8535 7.61566 14.5115C6.59209 14.1695 5.65406 13.6114 4.86521 12.8749C4.07636 12.1385 3.45516 11.2409 3.04375 10.2432C2.98542 10.0861 2.98542 9.91321 3.04375 9.75606C3.66436 8.25103 4.75634 6.98787 6.15579 6.15614M3.00035 3L16.9996 16.9993" stroke="#1F2329" stroke-linecap="round" stroke-linejoin="round"/>
</svg>
