<svg width="20" height="20" viewBox="0 0 20 20" fill="none" xmlns="http://www.w3.org/2000/svg">
<path d="M11.6671 11.7269C11.2145 12.164 10.6083 12.4059 9.97904 12.4005C9.3498 12.395 8.74788 12.1426 8.30292 11.6977C7.85796 11.2527 7.60557 10.6508 7.6001 10.0215C7.59464 9.39229 7.83653 8.78608 8.27369 8.33346M8.98645 4.46165C10.8499 4.23959 12.7348 4.6335 14.3533 5.58323C15.9718 6.53297 17.235 7.98633 17.95 9.72139C18.0167 9.90099 18.0167 10.0986 17.95 10.2782C17.656 10.9909 17.2675 11.6609 16.7949 12.2701M14.383 14.3996C13.3218 15.0281 12.1379 15.4211 10.9114 15.5518C9.68502 15.6825 8.44484 15.5479 7.27504 15.157C6.10525 14.7662 5.03321 14.1283 4.13167 13.2866C3.23013 12.4449 2.52018 11.4192 2.05 10.279C1.98333 10.0994 1.98333 9.90179 2.05 9.72219C2.75927 8.00216 4.00724 6.55854 5.60662 5.60799M2.0004 2.00098L17.9996 18.0002" stroke="currentColor" stroke-width="1.25" stroke-linecap="round" stroke-linejoin="round"/>
</svg>
