<svg width="20" height="20" viewBox="0 0 20 20" fill="none" xmlns="http://www.w3.org/2000/svg">
<path d="M7.6 13.2C8.2803 13.7042 9.10768 14 10 14C10.8923 14 11.7197 13.7042 12.4 13.2M2 10.1631C2 8.33239 2 7.41702 2.41536 6.65819C2.83072 5.89937 3.58956 5.42841 5.10722 4.4865L6.70722 3.4935C8.31151 2.49783 9.11368 2 10 2C10.8863 2 11.6885 2.49783 13.2928 3.4935L14.8928 4.4865C16.4105 5.42841 17.1693 5.89937 17.5846 6.65819C18 7.41702 18 8.33239 18 10.1631V11.38C18 14.5006 18 16.061 17.0627 17.0305C16.1255 18 14.617 18 11.6 18H8.4C5.38301 18 3.87452 18 2.93726 17.0305C2 16.061 2 14.5006 2 11.38V10.1631Z" stroke="currentColor" stroke-width="1.25" stroke-linecap="round"/>
</svg>
