<svg width="20" height="20" viewBox="0 0 20 20" fill="none" xmlns="http://www.w3.org/2000/svg">
<path d="M2 10.4001L3.40123 9.174C4.13026 8.53617 5.22903 8.57273 5.91396 9.25766L9.34579 12.6895C9.8955 13.2393 10.761 13.3142 11.3971 12.8671L11.6357 12.6995C12.5511 12.0562 13.7896 12.1307 14.6212 12.8792L17.2 15.2001M2 10C2 6.22871 2 4.34314 3.17153 3.17153C4.34314 2 6.22871 2 10 2C13.7712 2 15.6569 2 16.8284 3.17153C18 4.34314 18 6.22871 18 10C18 13.7712 18 15.6569 16.8284 16.8284C15.6569 18 13.7712 18 10 18C6.22871 18 4.34314 18 3.17153 16.8284C2 15.6569 2 13.7712 2 10ZM11.6025 6.80002C11.5999 8.03166 12.9316 8.80435 13.9996 8.19079C14.4974 7.90478 14.8038 7.37408 14.8025 6.80002C14.8052 5.5683 13.4735 4.79568 12.4055 5.40924C11.9077 5.69518 11.6013 6.22595 11.6025 6.80002Z" stroke="currentColor" stroke-width="1.25" stroke-linecap="round"/>
</svg>
