<svg width="20" height="20" viewBox="0 0 20 20" fill="none" xmlns="http://www.w3.org/2000/svg">
<path d="M10.5 13.25V9.95M5 10.5C5 11.9587 5.57946 13.3576 6.61091 14.3891C7.64236 15.4205 9.04131 16 10.5 16C11.9587 16 13.3576 15.4205 14.3891 14.3891C15.4205 13.3576 16 11.9587 16 10.5C16 9.04131 15.4205 7.64236 14.3891 6.61091C13.3576 5.57946 11.9587 5 10.5 5C9.04131 5 7.64236 5.57946 6.61091 6.61091C5.57946 7.64236 5 9.04131 5 10.5Z" stroke="currentColor" stroke-linecap="round"/>
<path d="M9.75 7.95C9.75 7.76435 9.82375 7.5863 9.95503 7.45503C10.0863 7.32375 10.2643 7.25 10.45 7.25C10.6357 7.25 10.8137 7.32375 10.945 7.45503C11.0763 7.5863 11.15 7.76435 11.15 7.95C11.15 8.13565 11.0763 8.3137 10.945 8.44497C10.8137 8.57625 10.6357 8.65 10.45 8.65C10.2643 8.65 10.0863 8.57625 9.95503 8.44497C9.82375 8.3137 9.75 8.13565 9.75 7.95Z" fill="currentColor"/>
</svg>
