<svg width="20" height="20" viewBox="0 0 20 20" fill="none" xmlns="http://www.w3.org/2000/svg">
<path d="M2.92857 2H7.57143C7.57143 2 8.5 2 8.5 2.88889V9.11111C8.5 9.11111 8.5 10 7.57143 10H2.92857C2.92857 10 2 10 2 9.11111V2.88889C2 2.88889 2 2 2.92857 2Z" stroke="#1F2329" stroke-width="1.25" stroke-linecap="round" stroke-linejoin="round"/>
<path d="M12.4286 2H17.0714C17.0714 2 18 2 18 3V6C18 6 18 7 17.0714 7H12.4286C12.4286 7 11.5 7 11.5 6V3C11.5 3 11.5 2 12.4286 2Z" stroke="#1F2329" stroke-width="1.25" stroke-linecap="round" stroke-linejoin="round"/>
<path d="M12.4286 10H17.0714C17.0714 10 18 10 18 10.8889V17.1111C18 17.1111 18 18 17.0714 18H12.4286C12.4286 18 11.5 18 11.5 17.1111V10.8889C11.5 10.8889 11.5 10 12.4286 10Z" stroke="#1F2329" stroke-width="1.25" stroke-linecap="round" stroke-linejoin="round"/>
<path d="M2.92857 13H7.57143C7.57143 13 8.5 13 8.5 14V17C8.5 17 8.5 18 7.57143 18H2.92857C2.92857 18 2 18 2 17V14C2 14 2 13 2.92857 13Z" stroke="#1F2329" stroke-width="1.25" stroke-linecap="round" stroke-linejoin="round"/>
</svg>
