<svg width="20" height="20" viewBox="0 0 20 20" fill="none" xmlns="http://www.w3.org/2000/svg">
<path d="M5.78409 9.99961C5.78409 10.7728 5.16085 11.3996 4.39205 11.3996C3.62324 11.3996 3 10.7728 3 9.99961C3 9.22641 3.62324 8.59961 4.39205 8.59961C5.16085 8.59961 5.78409 9.22641 5.78409 9.99961Z" fill="#1F2329"/>
<path d="M11.3725 9.99961C11.3725 10.7728 10.7492 11.3996 9.98042 11.3996C9.21161 11.3996 8.58837 10.7728 8.58837 9.99961C8.58837 9.22641 9.21161 8.59961 9.98042 8.59961C10.7492 8.59961 11.3725 9.22641 11.3725 9.99961Z" fill="#1F2329"/>
<path d="M17 9.99961C17 10.7728 16.3768 11.3996 15.608 11.3996C14.8391 11.3996 14.2159 10.7728 14.2159 9.99961C14.2159 9.22641 14.8391 8.59961 15.608 8.59961C16.3768 8.59961 17 9.22641 17 9.99961Z" fill="#1F2329"/>
</svg>
