<svg width="20" height="20" viewBox="0 0 20 20" fill="none" xmlns="http://www.w3.org/2000/svg">
<path d="M5.48295 10C5.48295 10.8284 4.8152 11.5 3.99148 11.5C3.16776 11.5 2.5 10.8284 2.5 10C2.5 9.17157 3.16776 8.5 3.99148 8.5C4.8152 8.5 5.48295 9.17157 5.48295 10Z" fill="#1F2329"/>
<path d="M11.4705 10C11.4705 10.8284 10.8027 11.5 9.97902 11.5C9.1553 11.5 8.48754 10.8284 8.48754 10C8.48754 9.17157 9.1553 8.5 9.97902 8.5C10.8027 8.5 11.4705 9.17157 11.4705 10Z" fill="#1F2329"/>
<path d="M17.5 10C17.5 10.8284 16.8322 11.5 16.0085 11.5C15.1848 11.5 14.517 10.8284 14.517 10C14.517 9.17157 15.1848 8.5 16.0085 8.5C16.8322 8.5 17.5 9.17157 17.5 10Z" fill="#1F2329"/>
</svg>
