<svg width="20" height="20" viewBox="0 0 20 20" fill="none" xmlns="http://www.w3.org/2000/svg">
<path d="M9.55806 9.75435C9.31398 9.99843 9.31398 10.3942 9.55806 10.6382C9.80214 10.8823 10.1979 10.8823 10.4419 10.6382L9.55806 9.75435ZM18 2.19629H18.625C18.625 1.85111 18.3452 1.57129 18 1.57129V2.19629ZM13.25 1.57129C12.9048 1.57129 12.625 1.85111 12.625 2.19629C12.625 2.54147 12.9048 2.82129 13.25 2.82129V1.57129ZM17.375 6.94629C17.375 7.29147 17.6548 7.57129 18 7.57129C18.3452 7.57129 18.625 7.29147 18.625 6.94629H17.375ZM18.625 10C18.625 9.65482 18.3452 9.375 18 9.375C17.6548 9.375 17.375 9.65482 17.375 10H18.625ZM16.8284 16.8284L16.3865 16.3864L16.3864 16.3865L16.8284 16.8284ZM3.17157 16.8284L3.61352 16.3865L3.61351 16.3864L3.17157 16.8284ZM3.17157 3.17158L3.61352 3.61352L3.61352 3.61352L3.17157 3.17158ZM9.99999 2.625C10.3452 2.625 10.625 2.34518 10.625 2C10.625 1.65482 10.3452 1.375 9.99999 1.375V2.625ZM10.4419 10.6382L18.4419 2.63823L17.5581 1.75435L9.55806 9.75435L10.4419 10.6382ZM18 1.57129H13.25V2.82129H18V1.57129ZM17.375 2.19629V6.94629H18.625V2.19629H17.375ZM17.375 10C17.375 11.9033 17.3737 13.2679 17.2341 14.3058C17.097 15.3258 16.8368 15.9362 16.3865 16.3864L17.2703 17.2704C17.9916 16.5491 18.3172 15.6309 18.473 14.4724C18.6263 13.3318 18.625 11.8679 18.625 10H17.375ZM16.3864 16.3865C15.9362 16.8368 15.3257 17.097 14.3058 17.2341C13.2679 17.3737 11.9033 17.375 9.99999 17.375V18.625C11.8679 18.625 13.3318 18.6263 14.4723 18.473C15.6309 18.3172 16.5491 17.9916 17.2703 17.2703L16.3864 16.3865ZM9.99999 17.375C8.0967 17.375 6.73212 17.3737 5.69419 17.2341C4.67424 17.097 4.06383 16.8368 3.61352 16.3865L2.72963 17.2703C3.45089 17.9916 4.36906 18.3172 5.52763 18.473C6.66821 18.6263 8.13204 18.625 9.99999 18.625V17.375ZM3.61351 16.3864C3.16321 15.9362 2.903 15.3258 2.76587 14.3058C2.62633 13.2679 2.625 11.9033 2.625 10H1.375C1.375 11.8679 1.37367 13.3318 1.52702 14.4724C1.68278 15.6309 2.00836 16.5491 2.72964 17.2704L3.61351 16.3864ZM2.625 10C2.625 8.09671 2.62633 6.73212 2.76587 5.69419C2.903 4.67424 3.16321 4.06382 3.61352 3.61352L2.72963 2.72963C2.00837 3.4509 1.68278 4.36907 1.52702 5.52763C1.37367 6.66821 1.375 8.13205 1.375 10H2.625ZM3.61352 3.61352C4.06382 3.16321 4.67424 2.903 5.69419 2.76587C6.73211 2.62633 8.0967 2.625 9.99999 2.625V1.375C8.13204 1.375 6.66821 1.37367 5.52763 1.52702C4.36907 1.68279 3.4509 2.00837 2.72963 2.72964L3.61352 3.61352Z" fill="currentColor"/>
</svg>
