<svg width="20" height="20" viewBox="0 0 20 20" fill="none" xmlns="http://www.w3.org/2000/svg">
<path d="M16.375 11.5C16.375 11.8452 16.6548 12.125 17 12.125C17.3452 12.125 17.625 11.8452 17.625 11.5H16.375ZM9.00006 18.625C9.34524 18.625 9.62503 18.3451 9.625 17.9999C9.62497 17.6548 9.34512 17.375 8.99994 17.375L9.00006 18.625ZM7.9 18.0001V18.6251H7.90006L7.9 18.0001ZM16.5052 7.83457L16.9755 7.42301L16.5052 7.83457ZM11.9976 2.6831L12.468 2.27154L12.468 2.27154L11.9976 2.6831ZM11.625 2C11.625 1.65482 11.3452 1.375 11 1.375C10.6548 1.375 10.375 1.65482 10.375 2H11.625ZM11 14.875C10.6548 14.875 10.375 15.1548 10.375 15.5C10.375 15.8452 10.6548 16.125 11 16.125V14.875ZM17 15.5L17.431 15.9526C17.5549 15.8346 17.625 15.671 17.625 15.5C17.625 15.329 17.5549 15.1654 17.431 15.0474L17 15.5ZM14.806 12.5474C14.5561 12.3094 14.1605 12.319 13.9224 12.569C13.6844 12.8189 13.694 13.2145 13.944 13.4526L14.806 12.5474ZM13.944 17.5474C13.694 17.7855 13.6844 18.1811 13.9224 18.431C14.1605 18.681 14.5561 18.6906 14.806 18.4526L13.944 17.5474ZM16.375 9.15158V11.5H17.625V9.15158H16.375ZM8.99994 17.375L7.89994 17.3751L7.90006 18.6251L9.00006 18.625L8.99994 17.375ZM7.9 17.3751C6.23159 17.3751 5.22434 16.9931 4.60786 16.2885C3.97254 15.5625 3.625 14.3541 3.625 12.4001H2.375C2.375 14.4461 2.72746 16.0378 3.66714 17.1117C4.62566 18.2071 6.06841 18.6251 7.9 18.6251V17.3751ZM3.625 12.4001V7.60011H2.375V12.4001H3.625ZM3.625 7.60011C3.625 5.64612 3.97254 4.43776 4.60786 3.71168C5.22434 3.00713 6.23159 2.62511 7.9 2.62511V1.37511C6.06841 1.37511 4.62566 1.79309 3.66714 2.88855C2.72746 3.96246 2.375 5.5541 2.375 7.60011H3.625ZM7.9 2.62511H10.4925V1.37511H7.9V2.62511ZM16.9755 7.42301L12.468 2.27154L11.5273 3.09467L16.0348 8.24614L16.9755 7.42301ZM10.4925 2.62511C10.6114 2.62511 10.7286 2.64051 10.8414 2.67011L11.1586 1.46104C10.9432 1.4045 10.7194 1.37511 10.4925 1.37511V2.62511ZM10.8414 2.67011C11.1048 2.73923 11.3445 2.88579 11.5273 3.09467L12.468 2.27154C12.119 1.8727 11.6614 1.59295 11.1586 1.46104L10.8414 2.67011ZM17.625 9.15158C17.625 9.085 17.6225 9.01864 17.6175 8.95265L16.371 9.04735C16.3737 9.08192 16.375 9.11668 16.375 9.15158H17.625ZM17.6175 8.95265C17.5746 8.38857 17.3504 7.85141 16.9755 7.42301L16.0348 8.24614C16.2311 8.47053 16.3486 8.7519 16.371 9.04735L17.6175 8.95265ZM17 8.375H16.9943V9.625H17V8.375ZM16.9943 8.375H13.5V9.625H16.9943V8.375ZM13.5 8.375C12.6217 8.375 12.2367 8.19521 12.027 7.94363C11.7881 7.65693 11.625 7.10707 11.625 6H10.375C10.375 7.14293 10.5244 8.09307 11.0667 8.74387C11.6383 9.42979 12.5033 9.625 13.5 9.625V8.375ZM11.625 6V2.06557H10.375V6H11.625ZM11.625 2.06557V2H10.375V2.06557H11.625ZM11 16.125H17V14.875H11V16.125ZM17.431 15.0474L14.806 12.5474L13.944 13.4526L16.569 15.9526L17.431 15.0474ZM16.569 15.0474L13.944 17.5474L14.806 18.4526L17.431 15.9526L16.569 15.0474Z" fill="#1F2329"/>
</svg>
