<svg width="20" height="20" viewBox="0 0 20 20" fill="none" xmlns="http://www.w3.org/2000/svg">
<path d="M2.40036 9.48953C2.40036 9.83471 2.68018 10.1145 3.02536 10.1145C3.37054 10.1145 3.65036 9.83471 3.65036 9.48953H2.40036ZM15.4455 5.8569C15.645 6.13852 16.0351 6.20503 16.3168 6.00544C16.5984 5.80586 16.6649 5.41576 16.4653 5.13413L15.4455 5.8569ZM5.27519 8.76485C5.5212 8.52272 5.52434 8.127 5.28221 7.88099C5.04008 7.63498 4.64436 7.63184 4.39836 7.87397L5.27519 8.76485ZM3.04339 10.0845L2.60497 10.53C2.84822 10.7694 3.23855 10.7694 3.4818 10.53L3.04339 10.0845ZM1.68842 7.87397C1.44241 7.63184 1.04669 7.63498 0.804562 7.88099C0.562431 8.127 0.565574 8.52272 0.811582 8.76485L1.68842 7.87397ZM17.5949 10.5105C17.5949 10.1653 17.315 9.88547 16.9699 9.88547C16.6247 9.88547 16.3449 10.1653 16.3449 10.5105H17.5949ZM4.54977 14.1431C4.35019 13.8615 3.96009 13.795 3.67846 13.9946C3.39684 14.1941 3.33033 14.5842 3.52992 14.8659L4.54977 14.1431ZM14.7248 11.2349C14.4788 11.4771 14.4757 11.8728 14.7178 12.1188C14.9599 12.3648 15.3556 12.3679 15.6016 12.1258L14.7248 11.2349ZM16.9566 9.91525L17.395 9.46982C17.1518 9.2304 16.7614 9.2304 16.5182 9.46982L16.9566 9.91525ZM18.3116 12.1258C18.5576 12.3679 18.9533 12.3648 19.1954 12.1188C19.4376 11.8728 19.4344 11.4771 19.1884 11.2349L18.3116 12.1258ZM3.65036 9.48953C3.65036 5.98382 6.54057 3.125 10.1268 3.125V1.875C5.86901 1.875 2.40036 5.27482 2.40036 9.48953H3.65036ZM10.1268 3.125C12.3314 3.125 14.2759 4.20654 15.4455 5.8569L16.4653 5.13413C15.0684 3.16294 12.7487 1.875 10.1268 1.875V3.125ZM4.39836 7.87397L2.60497 9.63909L3.4818 10.53L5.27519 8.76485L4.39836 7.87397ZM3.4818 9.63909L1.68842 7.87397L0.811582 8.76485L2.60497 10.53L3.4818 9.63909ZM16.3449 10.5105C16.3449 14.0162 13.4547 16.875 9.86842 16.875V18.125C14.1262 18.125 17.5949 14.7252 17.5949 10.5105H16.3449ZM9.86842 16.875C7.66384 16.875 5.71937 15.7935 4.54977 14.1431L3.52992 14.8659C4.92688 16.8371 7.24656 18.125 9.86842 18.125V16.875ZM15.6016 12.1258L17.395 10.3607L16.5182 9.46982L14.7248 11.2349L15.6016 12.1258ZM16.5182 10.3607L18.3116 12.1258L19.1884 11.2349L17.395 9.46982L16.5182 10.3607Z" fill="#1F2329"/>
</svg>
