<svg width="20" height="20" viewBox="0 0 20 20" fill="none" xmlns="http://www.w3.org/2000/svg">
<path d="M7.59961 10C7.59961 10.6365 7.85246 11.247 8.30255 11.6971C8.75264 12.1471 9.36309 12.4 9.99961 12.4C10.6361 12.4 11.2466 12.1471 11.6967 11.6971C12.1468 11.247 12.3996 10.6365 12.3996 10C12.3996 9.36348 12.1468 8.75303 11.6967 8.30294C11.2466 7.85286 10.6361 7.6 9.99961 7.6C9.36309 7.6 8.75264 7.85286 8.30255 8.30294C7.85246 8.75303 7.59961 9.36348 7.59961 10Z" stroke="currentColor" stroke-width="1.25"/>
<path d="M11.4119 2.12179C11.1178 2 10.7451 2 9.99961 2C9.25409 2 8.88137 2 8.58729 2.12179C8.19526 2.28418 7.88378 2.59566 7.72139 2.9877C7.64726 3.16667 7.61825 3.3748 7.6069 3.67839C7.59022 4.12454 7.36141 4.53751 6.97476 4.76074C6.58812 4.98397 6.11608 4.97563 5.72136 4.76701C5.45277 4.62504 5.25802 4.5461 5.06596 4.52082C4.64524 4.46542 4.21975 4.57943 3.8831 4.83776C3.6306 5.0315 3.44422 5.35432 3.07147 5.99994C2.69872 6.64558 2.51234 6.96838 2.4708 7.28393C2.41542 7.70464 2.52942 8.13013 2.78775 8.4668C2.90566 8.62048 3.07137 8.7496 3.32856 8.9112C3.70665 9.1488 3.94992 9.55352 3.9499 10C3.94987 10.4465 3.70661 10.8511 3.32855 11.0886C3.07133 11.2503 2.90559 11.3795 2.78767 11.5332C2.52934 11.8698 2.41534 12.2953 2.47073 12.716C2.51226 13.0315 2.69864 13.3544 3.07139 14C3.44415 14.6456 3.63053 14.9685 3.88302 15.1622C4.21967 15.4205 4.64516 15.5345 5.06588 15.4791C5.25792 15.4538 5.45266 15.3749 5.72124 15.233C6.11598 15.0243 6.58806 15.016 6.97473 15.2392C7.3614 15.4625 7.59022 15.8754 7.6069 16.3217C7.61826 16.6252 7.64726 16.8334 7.72139 17.0123C7.88378 17.4043 8.19526 17.7158 8.58729 17.8782C8.88137 18 9.25409 18 9.99961 18C10.7451 18 11.1178 18 11.4119 17.8782C11.8039 17.7158 12.1154 17.4043 12.2778 17.0123C12.3519 16.8334 12.381 16.6252 12.3923 16.3216C12.409 15.8754 12.6378 15.4625 13.0244 15.2392C13.411 15.0159 13.8831 15.0243 14.2779 15.233C14.5465 15.3749 14.7412 15.4538 14.9332 15.479C15.3539 15.5345 15.7794 15.4205 16.1161 15.1622C16.3686 14.9684 16.555 14.6456 16.9277 13.9999C17.3005 13.3543 17.4869 13.0315 17.5284 12.716C17.5838 12.2953 17.4698 11.8698 17.2114 11.5331C17.0935 11.3794 16.9278 11.2502 16.6706 11.0886C16.2926 10.8511 16.0493 10.4464 16.0493 9.99992C16.0493 9.55344 16.2926 9.14888 16.6706 8.91136C16.9278 8.74968 17.0936 8.62056 17.2115 8.4668C17.4698 8.13018 17.5838 7.7047 17.5285 7.28398C17.487 6.96844 17.3006 6.64562 16.9278 6C16.555 5.35438 16.3686 5.03156 16.1162 4.83782C15.7795 4.57949 15.354 4.46548 14.9333 4.52087C14.7413 4.54615 14.5466 4.62509 14.2779 4.76704C13.8832 4.97567 13.4111 4.98402 13.0245 4.76077C12.6378 4.53753 12.409 4.12453 12.3923 3.67835C12.381 3.37478 12.3519 3.16666 12.2778 2.9877C12.1154 2.59566 11.8039 2.28418 11.4119 2.12179Z" stroke="currentColor" stroke-width="1.25"/>
</svg>
