<svg width="20" height="20" viewBox="0 0 20 20" fill="none" xmlns="http://www.w3.org/2000/svg">
<path d="M7.90014 10C7.90014 10.557 8.12139 11.0911 8.51522 11.4849C8.90905 11.8788 9.44319 12.1 10.0001 12.1C10.5571 12.1 11.0912 11.8788 11.4851 11.4849C11.8789 11.0911 12.1001 10.557 12.1001 10C12.1001 9.44305 11.8789 8.9089 11.4851 8.51508C11.0912 8.12125 10.5571 7.9 10.0001 7.9C9.44319 7.9 8.90905 8.12125 8.51522 8.51508C8.12139 8.9089 7.90014 9.44305 7.90014 10Z" stroke="currentColor"/>
<path d="M11.2359 3.10657C10.9786 3 10.6525 3 10.0001 3C9.34781 3 9.02169 3 8.76437 3.10657C8.42134 3.24866 8.1488 3.52121 8.00671 3.86424C7.94184 4.02084 7.91645 4.20295 7.90652 4.46859C7.89193 4.85898 7.69173 5.22032 7.3534 5.41565C7.01509 5.61097 6.60206 5.60368 6.25668 5.42113C6.02166 5.29691 5.85125 5.22783 5.6832 5.20571C5.31507 5.15725 4.94277 5.257 4.6482 5.48304C4.42726 5.65257 4.26418 5.93503 3.93803 6.49995C3.61187 7.06488 3.44879 7.34734 3.41244 7.62344C3.36398 7.99156 3.46373 8.36386 3.68977 8.65845C3.79294 8.79292 3.93793 8.9059 4.16298 9.0473C4.4938 9.2552 4.70667 9.60933 4.70665 10C4.70663 10.3907 4.49377 10.7447 4.16297 10.9526C3.9379 11.094 3.79288 11.2071 3.6897 11.3416C3.46366 11.6361 3.36391 12.0084 3.41237 12.3765C3.44872 12.6526 3.6118 12.9351 3.93796 13.5C4.26412 14.0649 4.4272 14.3474 4.64813 14.5169C4.9427 14.7429 5.315 14.8427 5.68313 14.7942C5.85117 14.7721 6.02157 14.703 6.25657 14.5788C6.60197 14.3963 7.01504 14.389 7.35337 14.5843C7.69171 14.7797 7.89193 15.141 7.90652 15.5315C7.91646 15.7971 7.94184 15.9792 8.00671 16.1358C8.1488 16.4788 8.42134 16.7514 8.76437 16.8935C9.02169 17 9.34781 17 10.0001 17C10.6525 17 10.9786 17 11.2359 16.8935C11.5789 16.7514 11.8515 16.4788 11.9935 16.1358C12.0584 15.9792 12.0838 15.7971 12.0938 15.5314C12.1083 15.141 12.3085 14.7797 12.6468 14.5843C12.9852 14.3889 13.3982 14.3963 13.7437 14.5788C13.9787 14.703 14.149 14.772 14.317 14.7942C14.6852 14.8427 15.0575 14.7429 15.3521 14.5169C15.573 14.3474 15.7361 14.0649 16.0622 13.4999C16.3884 12.935 16.5515 12.6526 16.5878 12.3765C16.6363 12.0084 16.5365 11.636 16.3105 11.3415C16.2073 11.207 16.0623 11.094 15.8372 10.9526C15.5065 10.7447 15.2936 10.3906 15.2936 9.99993C15.2936 9.60926 15.5065 9.25527 15.8372 9.04744C16.0624 8.90597 16.2074 8.79299 16.3106 8.65845C16.5366 8.36391 16.6364 7.99161 16.5879 7.62348C16.5516 7.34739 16.3885 7.06492 16.0623 6.5C15.7362 5.93508 15.5731 5.65262 15.3521 5.48309C15.0576 5.25705 14.6852 5.1573 14.3171 5.20576C14.1491 5.22788 13.9787 5.29695 13.7437 5.42116C13.3983 5.60371 12.9852 5.61101 12.6469 5.41567C12.3085 5.22034 12.1083 4.85896 12.0938 4.46856C12.0838 4.20294 12.0584 4.02083 11.9935 3.86424C11.8515 3.52121 11.5789 3.24866 11.2359 3.10657Z" stroke="currentColor"/>
</svg>
