<svg width="20" height="20" viewBox="0 0 20 20" fill="none" xmlns="http://www.w3.org/2000/svg">
<path d="M18.6239 11.6036C18.6269 11.2584 18.3494 10.9763 18.0042 10.9733C17.6591 10.9704 17.3769 11.2479 17.374 11.593L18.6239 11.6036ZM16.8314 16.8282L17.2733 17.2701L17.2733 17.2701L16.8314 16.8282ZM3.1718 16.8282L2.72984 17.2701L2.72986 17.2701L3.1718 16.8282ZM3.1718 3.1677L3.61376 3.60963L3.61376 3.60963L3.1718 3.1677ZM8.40656 2.62498C8.75173 2.62205 9.02917 2.33987 9.02624 1.9947C9.02331 1.64953 8.74113 1.3721 8.39596 1.37502L8.40656 2.62498ZM18 5.84615L18.4419 6.2881C18.686 6.04402 18.686 5.64829 18.4419 5.40421L18 5.84615ZM9.29262 6.84638L8.84961 6.4055L8.84955 6.40556L9.29262 6.84638ZM9.14677 6.99294L9.58757 7.43602L9.58971 7.43388L9.14677 6.99294ZM9.00023 7.13878L9.44109 7.5818L9.44117 7.58172L9.00023 7.13878ZM7.375 12C7.375 12.3452 7.65482 12.625 8 12.625C8.34518 12.625 8.625 12.3452 8.625 12H7.375ZM14.5958 1.55806C14.3517 1.31398 13.956 1.31398 13.7119 1.55806C13.4678 1.80214 13.4678 2.19786 13.7119 2.44194L14.5958 1.55806ZM13.7119 9.25037C13.4678 9.49444 13.4678 9.89017 13.7119 10.1342C13.956 10.3783 14.3517 10.3783 14.5958 10.1342L13.7119 9.25037ZM17.374 11.593C17.3624 12.9608 17.3179 13.9666 17.1654 14.7449C17.0164 15.5058 16.7725 16.003 16.3894 16.3863L17.2733 17.2701C17.883 16.6603 18.2114 15.9082 18.3921 14.9852C18.5695 14.0797 18.6124 12.9671 18.6239 11.6036L17.374 11.593ZM16.3894 16.3862C15.939 16.8367 15.3284 17.0969 14.3082 17.2341C13.2701 17.3737 11.9052 17.375 10.0016 17.375V18.625C11.8699 18.625 13.334 18.6263 14.4748 18.4729C15.6336 18.3171 16.5519 17.9915 17.2733 17.2701L16.3894 16.3862ZM10.0016 17.375C8.0979 17.375 6.73304 17.3737 5.6949 17.2341C4.67474 17.0969 4.06417 16.8367 3.61375 16.3862L2.72986 17.2701C3.45124 17.9915 4.36956 18.3171 5.52834 18.4729C6.66913 18.6263 8.13324 18.625 10.0016 18.625V17.375ZM3.61377 16.3862C3.16333 15.9358 2.90306 15.3251 2.7659 14.3049C2.62633 13.2667 2.625 11.9017 2.625 9.99792H1.375C1.375 11.8664 1.37367 13.3306 1.52705 14.4714C1.68284 15.6303 2.00847 16.5486 2.72984 17.2701L3.61377 16.3862ZM2.625 9.99792C2.625 8.09414 2.62633 6.72918 2.7659 5.69096C2.90306 4.67071 3.16333 4.06009 3.61376 3.60963L2.72985 2.72578C2.00847 3.4472 1.68284 4.36557 1.52705 5.52441C1.37367 6.66527 1.375 8.12948 1.375 9.99792H2.625ZM3.61376 3.60963C3.99691 3.22645 4.49405 2.98257 5.25486 2.83353C6.03312 2.68108 7.03888 2.63658 8.40656 2.62498L8.39596 1.37502C7.0326 1.38658 5.92006 1.42947 5.01456 1.60685C4.09161 1.78765 3.33955 2.11603 2.72985 2.72578L3.61376 3.60963ZM18 5.22115H11.8462V6.47115H18V5.22115ZM11.8462 5.22115C10.2262 5.22115 9.23342 6.01983 8.84961 6.4055L9.73562 7.28725C9.97689 7.04481 10.6698 6.47115 11.8462 6.47115V5.22115ZM8.84955 6.40556C8.80119 6.45417 8.76475 6.49079 8.7404 6.51525C8.72823 6.52748 8.71908 6.53667 8.71298 6.54281C8.70993 6.54587 8.70764 6.54817 8.70611 6.54971C8.70535 6.55047 8.70477 6.55105 8.70439 6.55143C8.7042 6.55162 8.70406 6.55176 8.70397 6.55186C8.70392 6.55191 8.70388 6.55194 8.70386 6.55196C8.70385 6.55198 8.70384 6.55199 8.70384 6.55199C8.70383 6.55199 8.70383 6.552 8.70383 6.552C8.70383 6.552 8.70383 6.552 8.70383 6.552C8.70383 6.552 8.70383 6.552 9.14677 6.99294C9.58971 7.43388 9.58971 7.43388 9.58971 7.43388C9.58971 7.43388 9.58971 7.43388 9.58971 7.43387C9.58972 7.43387 9.58972 7.43387 9.58972 7.43387C9.58973 7.43386 9.58974 7.43385 9.58975 7.43384C9.58977 7.43381 9.58981 7.43378 9.58986 7.43373C9.58996 7.43363 9.5901 7.43349 9.59029 7.43329C9.59068 7.43291 9.59126 7.43233 9.59202 7.43155C9.59356 7.43001 9.59586 7.4277 9.59892 7.42462C9.60504 7.41847 9.61421 7.40926 9.62641 7.39701C9.65079 7.37251 9.68727 7.33585 9.73568 7.2872L8.84955 6.40556ZM9.14677 6.99294C8.70597 6.54986 8.70597 6.54986 8.70597 6.54986C8.70597 6.54986 8.70597 6.54986 8.70597 6.54986C8.70597 6.54986 8.70596 6.54986 8.70596 6.54987C8.70595 6.54987 8.70594 6.54988 8.70593 6.5499C8.70591 6.54992 8.70587 6.54996 8.70582 6.55C8.70572 6.5501 8.70558 6.55025 8.70538 6.55044C8.705 6.55083 8.70442 6.5514 8.70364 6.55217C8.7021 6.55371 8.69979 6.55601 8.69671 6.55907C8.69056 6.56519 8.68134 6.57436 8.66909 6.58655C8.64459 6.61094 8.60793 6.64743 8.55929 6.69585L9.44117 7.58172C9.48976 7.53335 9.52637 7.49691 9.55083 7.47257C9.56306 7.46041 9.57225 7.45126 9.57838 7.44516C9.58145 7.44211 9.58375 7.43982 9.58528 7.4383C9.58604 7.43754 9.58662 7.43696 9.587 7.43658C9.58719 7.43639 9.58733 7.43625 9.58743 7.43616C9.58748 7.43611 9.58751 7.43608 9.58753 7.43605C9.58755 7.43604 9.58755 7.43603 9.58756 7.43603C9.58756 7.43602 9.58757 7.43602 9.58757 7.43602C9.58757 7.43602 9.58757 7.43602 9.58757 7.43602C9.58757 7.43602 9.58757 7.43602 9.14677 6.99294ZM8.55937 6.69576C8.17368 7.07958 7.375 8.07236 7.375 9.69231H8.625C8.625 8.51595 9.19866 7.82305 9.44109 7.5818L8.55937 6.69576ZM7.375 9.69231V12H8.625V9.69231H7.375ZM18.4419 5.40421L14.5958 1.55806L13.7119 2.44194L17.5581 6.2881L18.4419 5.40421ZM17.5581 5.40421L13.7119 9.25037L14.5958 10.1342L18.4419 6.2881L17.5581 5.40421Z" fill="currentColor"/>
</svg>
