<svg width="20" height="20" viewBox="0 0 20 20" fill="none" xmlns="http://www.w3.org/2000/svg">
<path d="M2.05 10.279C1.98333 10.0994 1.98333 9.90181 2.05 9.72221C2.69933 8.14777 3.80153 6.80158 5.21686 5.85432C6.63219 4.90705 8.29692 4.40137 10 4.40137C11.7031 4.40137 13.3678 4.90705 14.7831 5.85432C16.1985 6.80158 17.3007 8.14777 17.95 9.72221C18.0167 9.90181 18.0167 10.0994 17.95 10.279C17.3007 11.8534 16.1985 13.1996 14.7831 14.1469C13.3678 15.0941 11.7031 15.5998 10 15.5998C8.29692 15.5998 6.63219 15.0941 5.21686 14.1469C3.80153 13.1996 2.69933 11.8534 2.05 10.279Z" stroke="#1F2329" stroke-width="1.25" stroke-linecap="round" stroke-linejoin="round"/>
<path d="M10 12.4005C11.3254 12.4005 12.3999 11.326 12.3999 10.0006C12.3999 8.67517 11.3254 7.60071 10 7.60071C8.67458 7.60071 7.60012 8.67517 7.60012 10.0006C7.60012 11.326 8.67458 12.4005 10 12.4005Z" stroke="#1F2329" stroke-width="1.25" stroke-linecap="round" stroke-linejoin="round"/>
</svg>
