<svg width="20" height="20" viewBox="0 0 20 20" fill="none" xmlns="http://www.w3.org/2000/svg">
<path d="M3.04375 10.2435C2.98542 10.0863 2.98542 9.91347 3.04375 9.75632C3.61191 8.37869 4.57633 7.20078 5.81475 6.37192C7.05317 5.54306 8.50981 5.10059 10 5.10059C11.4902 5.10059 12.9468 5.54306 14.1852 6.37192C15.4237 7.20078 16.3881 8.37869 16.9562 9.75632C17.0146 9.91347 17.0146 10.0863 16.9562 10.2435C16.3881 11.6211 15.4237 12.799 14.1852 13.6279C12.9468 14.4568 11.4902 14.8992 10 14.8992C8.50981 14.8992 7.05317 14.4568 5.81475 13.6279C4.57633 12.799 3.61191 11.6211 3.04375 10.2435Z" stroke="#1F2329" stroke-linecap="round" stroke-linejoin="round"/>
<path d="M10 12.0998C11.1597 12.0998 12.0999 11.1596 12.0999 9.99991C12.0999 8.84017 11.1597 7.90001 10 7.90001C8.84026 7.90001 7.90011 8.84017 7.90011 9.99991C7.90011 11.1596 8.84026 12.0998 10 12.0998Z" stroke="#1F2329" stroke-linecap="round" stroke-linejoin="round"/>
</svg>
