<svg width="20" height="20" viewBox="0 0 20 20" fill="none" xmlns="http://www.w3.org/2000/svg">
<mask id="path-1-inside-1_1966_4027" fill="white">
<path d="M13.4468 11.6286C13.6517 12.1226 14.3515 12.1225 14.5562 11.6284L14.8234 10.9838C15.2296 10.0034 16.0086 9.2244 16.9891 8.81811L17.6294 8.55278C18.1236 8.34799 18.1235 7.64801 17.6292 7.4434L16.9845 7.17652C16.003 6.7702 15.2233 5.99048 14.817 5.00907L14.5534 4.37235C14.3487 3.87788 13.6482 3.878 13.4437 4.37254L13.1783 5.01428C12.7721 5.9965 11.9918 6.77685 11.0096 7.18327L10.3709 7.44754C9.87647 7.6521 9.87635 8.35226 10.3707 8.55699L11.0155 8.82407C11.9959 9.2301 12.7749 10.0087 13.1814 10.9887L13.4468 11.6286Z"/>
</mask>
<path d="M13.4468 11.6286C13.6517 12.1226 14.3515 12.1225 14.5562 11.6284L14.8234 10.9838C15.2296 10.0034 16.0086 9.2244 16.9891 8.81811L17.6294 8.55278C18.1236 8.34799 18.1235 7.64801 17.6292 7.4434L16.9845 7.17652C16.003 6.7702 15.2233 5.99048 14.817 5.00907L14.5534 4.37235C14.3487 3.87788 13.6482 3.878 13.4437 4.37254L13.1783 5.01428C12.7721 5.9965 11.9918 6.77685 11.0096 7.18327L10.3709 7.44754C9.87647 7.6521 9.87635 8.35226 10.3707 8.55699L11.0155 8.82407C11.9959 9.2301 12.7749 10.0087 13.1814 10.9887L13.4468 11.6286Z" fill="#1F2329"/>
<path d="M14.5562 11.6284L15.711 12.1069L15.711 12.1069L14.5562 11.6284ZM13.4468 11.6286L14.6014 11.1497L14.6014 11.1497L13.4468 11.6286ZM14.8234 10.9838L13.6686 10.5053L13.6686 10.5053L14.8234 10.9838ZM16.9891 8.81811L16.5106 7.66332H16.5106L16.9891 8.81811ZM17.6294 8.55278L17.1509 7.39799L17.1509 7.39799L17.6294 8.55278ZM17.6292 7.4434L18.1073 6.28845L17.6292 7.4434ZM16.9845 7.17652L16.5064 8.33147L16.5064 8.33147L16.9845 7.17652ZM14.817 5.00907L13.662 5.48717L13.662 5.48716L14.817 5.00907ZM14.5534 4.37235L15.7084 3.89425L15.7084 3.89425L14.5534 4.37235ZM13.4437 4.37254L12.2885 3.89484L12.2885 3.89483L13.4437 4.37254ZM13.1783 5.01428L14.3334 5.49198L14.3334 5.49198L13.1783 5.01428ZM11.0096 7.18327L11.4875 8.3383H11.4875L11.0096 7.18327ZM10.3709 7.44754L9.89296 6.2925L9.89296 6.2925L10.3709 7.44754ZM10.3707 8.55699L9.89238 9.71186L9.89237 9.71186L10.3707 8.55699ZM11.0155 8.82407L10.5372 9.97894L10.5372 9.97894L11.0155 8.82407ZM13.1814 10.9887L14.336 10.5099V10.5099L13.1814 10.9887ZM15.711 12.1069C15.0802 13.6294 12.9236 13.6298 12.2922 12.1075L14.6014 11.1497C14.3798 10.6154 13.6229 10.6155 13.4015 11.1499L15.711 12.1069ZM15.9781 11.4623L15.711 12.1069L13.4014 11.1499L13.6686 10.5053L15.9781 11.4623ZM17.4676 9.97289C16.7932 10.2523 16.2575 10.7881 15.9781 11.4623L13.6686 10.5053C14.2017 9.21867 15.224 8.19646 16.5106 7.66332L17.4676 9.97289ZM18.1079 9.70756L17.4676 9.97289L16.5106 7.66332L17.1509 7.39799L18.1079 9.70756ZM18.1073 6.28845C19.6306 6.91903 19.631 9.07646 18.1079 9.70756L17.1509 7.39799C16.6163 7.61953 16.6164 8.37699 17.1511 8.59835L18.1073 6.28845ZM17.4626 6.02156L18.1073 6.28845L17.1511 8.59835L16.5064 8.33147L17.4626 6.02156ZM15.9719 4.53096C16.2513 5.20586 16.7876 5.74211 17.4626 6.02156L16.5064 8.33147C15.2184 7.79829 14.1952 6.7751 13.662 5.48717L15.9719 4.53096ZM15.7084 3.89425L15.972 4.53097L13.662 5.48716L13.3985 4.85044L15.7084 3.89425ZM12.2885 3.89483C12.9188 2.37076 15.0776 2.37038 15.7084 3.89425L13.3985 4.85045C13.6199 5.38537 14.3775 5.38523 14.5988 4.85025L12.2885 3.89483ZM12.0232 4.53657L12.2885 3.89484L14.5988 4.85024L14.3334 5.49198L12.0232 4.53657ZM10.5317 6.02824C11.2072 5.74871 11.7438 5.21202 12.0232 4.53657L14.3334 5.49198C13.8003 6.78097 12.7764 7.80499 11.4875 8.3383L10.5317 6.02824ZM9.89296 6.2925L10.5317 6.02824L11.4875 8.3383L10.8488 8.60257L9.89296 6.2925ZM9.89237 9.71186C8.36893 9.0809 8.36929 6.92294 9.89296 6.2925L10.8488 8.60257C11.3836 8.38127 11.3838 7.62361 10.849 7.40213L9.89237 9.71186ZM10.5372 9.97894L9.89238 9.71186L10.849 7.40213L11.4938 7.6692L10.5372 9.97894ZM12.0268 11.4676C11.7473 10.7937 11.2115 10.2582 10.5372 9.97894L11.4938 7.6692C12.7803 8.202 13.8026 9.22371 14.336 10.5099L12.0268 11.4676ZM12.2922 12.1075L12.0268 11.4676L14.336 10.5099L14.6014 11.1497L12.2922 12.1075Z" fill="#1F2329" mask="url(#path-1-inside-1_1966_4027)"/>
<path d="M2 6H8M2 10.5H8M2 15H18" stroke="#1F2329" stroke-width="1.25" stroke-linecap="round"/>
</svg>
