<svg width="22" height="20" viewBox="0 0 22 20" fill="none" xmlns="http://www.w3.org/2000/svg">
<path d="M1.5 10.3251L2.6385 9.32888C3.23084 8.81064 4.12359 8.84035 4.6801 9.39685L7.46845 12.1852C7.91509 12.6319 8.6183 12.6928 9.13518 12.3295L9.329 12.1933C10.0727 11.6706 11.079 11.7312 11.7547 12.3393L13.85 14.2251M1.5 10C1.5 6.93583 1.5 5.4038 2.45187 4.45187C3.4038 3.5 4.93583 3.5 8 3.5C11.0641 3.5 12.5962 3.5 13.5481 4.45187C14.5 5.4038 14.5 6.93583 14.5 10C14.5 13.0641 14.5 14.5962 13.5481 15.5481C12.5963 16.5 11.0641 16.5 8 16.5C4.93583 16.5 3.4038 16.5 2.45187 15.5481C1.5 14.5963 1.5 13.0641 1.5 10ZM9.30155 7.40054C9.29941 8.40126 10.3814 9.02906 11.2491 8.53055C11.6536 8.29817 11.9026 7.86697 11.9015 7.40054C11.9037 6.39977 10.8217 5.77202 9.95395 6.27054C9.5495 6.50286 9.30054 6.93411 9.30155 7.40054Z" stroke="currentColor" stroke-width="1.25" stroke-linecap="round"/>
<path d="M20.5 6H16.5M19.5 10H16.5M18.5 14H16.5" stroke="currentColor" stroke-width="1.25" stroke-linecap="round"/>
</svg>
