<svg width="20" height="20" viewBox="0 0 20 20" fill="none" xmlns="http://www.w3.org/2000/svg">
<path d="M1.41479 15.7805C1.29359 16.1037 1.45735 16.464 1.78055 16.5852C2.10375 16.7064 2.46401 16.5427 2.58521 16.2195L1.41479 15.7805ZM6.5 4L7.08521 3.78055C6.99373 3.53661 6.76053 3.375 6.5 3.375C6.23947 3.375 6.00627 3.53661 5.91479 3.78055L6.5 4ZM10.4148 16.2195C10.536 16.5427 10.8963 16.7064 11.2195 16.5852C11.5427 16.464 11.7064 16.1037 11.5852 15.7805L10.4148 16.2195ZM18.625 16.5V13H17.375V16.5H18.625ZM18.625 13V9.5H17.375V13H18.625ZM17.375 13C17.375 14.3117 16.3117 15.375 15 15.375V16.625C17.002 16.625 18.625 15.002 18.625 13H17.375ZM15 15.375C13.6883 15.375 12.625 14.3117 12.625 13H11.375C11.375 15.002 12.998 16.625 15 16.625V15.375ZM12.625 13C12.625 11.6883 13.6883 10.625 15 10.625V9.375C12.998 9.375 11.375 10.998 11.375 13H12.625ZM15 10.625C16.3117 10.625 17.375 11.6883 17.375 13H18.625C18.625 10.998 17.002 9.375 15 9.375V10.625ZM2.58521 16.2195L7.08521 4.21945L5.91479 3.78055L1.41479 15.7805L2.58521 16.2195ZM5.91479 4.21945L8.81383 11.9502L9.98424 11.5113L7.08521 3.78055L5.91479 4.21945ZM8.81383 11.9502L10.4148 16.2195L11.5852 15.7805L9.98424 11.5113L8.81383 11.9502ZM4 12.3558H9.39904V11.1058H4V12.3558Z" fill="#1F2329"/>
</svg>
