<svg width="20" height="20" viewBox="0 0 20 20" fill="none" xmlns="http://www.w3.org/2000/svg">
<path d="M4.44098 12.7205C4.28661 13.0292 4.41175 13.4046 4.72049 13.559C5.02923 13.7134 5.40465 13.5882 5.55902 13.2795L4.44098 12.7205ZM10 3L10.559 2.72049C10.4531 2.50875 10.2367 2.375 10 2.375C9.76327 2.375 9.54685 2.50875 9.44098 2.72049L10 3ZM14.441 13.2795C14.5954 13.5882 14.9708 13.7134 15.2795 13.559C15.5882 13.4046 15.7134 13.0292 15.559 12.7205L14.441 13.2795ZM5.55902 13.2795L7.22568 9.94618L6.10765 9.38716L4.44098 12.7205L5.55902 13.2795ZM7.22568 9.94618L10.559 3.27951L9.44098 2.72049L6.10765 9.38716L7.22568 9.94618ZM9.44098 3.27951L12.7743 9.94618L13.8924 9.38716L10.559 2.72049L9.44098 3.27951ZM12.7743 9.94618L14.441 13.2795L15.559 12.7205L13.8924 9.38716L12.7743 9.94618ZM6.66667 10.2917H13.3333V9.04167H6.66667V10.2917Z" fill="#1F2329"/>
<path d="M2 17H18" stroke="#1F2329" stroke-width="3"/>
</svg>
