<svg width="20" height="20" viewBox="0 0 20 20" fill="none" xmlns="http://www.w3.org/2000/svg">
<path d="M3.17158 3.17158L3.61352 3.61352L3.61352 3.61352L3.17158 3.17158ZM16.8284 3.17158L16.3864 3.61351L16.3865 3.61352L16.8284 3.17158ZM16.8284 16.8284L16.3865 16.3864L16.3864 16.3865L16.8284 16.8284ZM3.17158 16.8284L3.61352 16.3865L3.61351 16.3864L3.17158 16.8284ZM7.64194 9.95806C7.39786 9.71398 7.00214 9.71398 6.75806 9.95806C6.51398 10.2021 6.51398 10.5979 6.75806 10.8419L7.64194 9.95806ZM8.8 12L8.35806 12.4419C8.60214 12.686 8.99786 12.686 9.24194 12.4419L8.8 12ZM13.2419 8.44194C13.486 8.19786 13.486 7.80214 13.2419 7.55806C12.9979 7.31398 12.6021 7.31398 12.3581 7.55806L13.2419 8.44194ZM2.625 10C2.625 8.09671 2.62633 6.73212 2.76587 5.69419C2.903 4.67424 3.16321 4.06382 3.61352 3.61352L2.72964 2.72963C2.00837 3.4509 1.68279 4.36907 1.52702 5.52763C1.37367 6.66821 1.375 8.13205 1.375 10H2.625ZM3.61352 3.61352C4.06382 3.16321 4.67424 2.903 5.69419 2.76587C6.73212 2.62633 8.09671 2.625 10 2.625V1.375C8.13205 1.375 6.66821 1.37367 5.52763 1.52702C4.36907 1.68279 3.4509 2.00837 2.72963 2.72964L3.61352 3.61352ZM10 2.625C11.9033 2.625 13.2679 2.62633 14.3058 2.76587C15.3258 2.903 15.9362 3.16321 16.3864 3.61351L17.2704 2.72964C16.5491 2.00836 15.6309 1.68278 14.4724 1.52702C13.3318 1.37367 11.8679 1.375 10 1.375V2.625ZM16.3865 3.61352C16.8368 4.06383 17.097 4.67425 17.2341 5.69419C17.3737 6.73212 17.375 8.09671 17.375 10H18.625C18.625 8.13205 18.6263 6.66821 18.473 5.52763C18.3172 4.36907 17.9916 3.45089 17.2703 2.72963L16.3865 3.61352ZM17.375 10C17.375 11.9033 17.3737 13.2679 17.2341 14.3058C17.097 15.3258 16.8368 15.9362 16.3865 16.3864L17.2703 17.2704C17.9916 16.5491 18.3172 15.6309 18.473 14.4724C18.6263 13.3318 18.625 11.8679 18.625 10H17.375ZM16.3864 16.3865C15.9362 16.8368 15.3258 17.097 14.3058 17.2341C13.2679 17.3737 11.9033 17.375 10 17.375V18.625C11.8679 18.625 13.3318 18.6263 14.4724 18.473C15.6309 18.3172 16.5491 17.9916 17.2704 17.2703L16.3864 16.3865ZM10 17.375C8.09671 17.375 6.73212 17.3737 5.69419 17.2341C4.67425 17.097 4.06383 16.8368 3.61352 16.3865L2.72963 17.2703C3.45089 17.9916 4.36907 18.3172 5.52763 18.473C6.66821 18.6263 8.13205 18.625 10 18.625V17.375ZM3.61351 16.3864C3.16321 15.9362 2.903 15.3258 2.76587 14.3058C2.62633 13.2679 2.625 11.9033 2.625 10H1.375C1.375 11.8679 1.37367 13.3318 1.52702 14.4724C1.68278 15.6309 2.00836 16.5491 2.72964 17.2704L3.61351 16.3864ZM6.75806 10.8419L8.35806 12.4419L9.24194 11.5581L7.64194 9.95806L6.75806 10.8419ZM9.24194 12.4419L13.2419 8.44194L12.3581 7.55806L8.35806 11.5581L9.24194 12.4419Z" fill="currentColor"/>
</svg>
