<svg width="20" height="20" viewBox="0 0 20 20" fill="none" xmlns="http://www.w3.org/2000/svg">
<path d="M6.29961 4V9.99978M6.29961 9.99978V15.9995M6.29961 9.99978L13.761 10.0002M13.761 10.0002V4.00049M13.761 10.0002V16M19 16H16V15.0096C16 14.4851 16.2751 14.0057 16.7107 13.7712L18.3619 12.8821C18.7342 12.6816 19 12.2944 19 11.8462C19 11.5396 18.9769 11.2388 18.9324 10.9458C18.8554 10.4384 18.4555 10.0709 17.9796 10.0298C17.7507 10.0101 17.5193 10 17.2857 10C16.8487 10 16.4194 10.0352 16 10.1032M1 12.5L4 10L1 7.5V12.5Z" stroke="#1F2329" stroke-width="1.25" stroke-linecap="round" stroke-linejoin="round"/>
</svg>
