<svg width="20" height="20" viewBox="0 0 20 20" fill="none" xmlns="http://www.w3.org/2000/svg">
<path d="M6.29961 4V9.99978M6.29961 9.99978V15.9995M6.29961 9.99978L13.761 10.0002M13.761 10.0002V4.00049M13.761 10.0002V16M18.5174 13C18.8211 13.4547 19 14.0125 19 14.6154C19 14.8221 18.979 15.0235 18.9391 15.2172C18.8511 15.6451 18.4849 15.9209 18.0796 15.961C17.8182 15.9868 17.5534 16 17.2857 16C16.8487 16 16.4194 15.9648 16 15.8969M18.5174 13C18.8211 12.5454 19 11.9875 19 11.3846C19 11.1779 18.979 10.9766 18.9391 10.7829C18.8511 10.3549 18.4849 10.0792 18.0796 10.0391C17.8182 10.0132 17.5534 10 17.2857 10C16.8487 10 16.4194 10.0352 16 10.1032M18.5174 13H16.8571M1 12.5L4 10L1 7.5V12.5Z" stroke="#1F2329" stroke-width="1.25" stroke-linecap="round" stroke-linejoin="round"/>
</svg>
