<svg width="20" height="20" viewBox="0 0 20 20" fill="none" xmlns="http://www.w3.org/2000/svg">
<path d="M5.82951 5.32544L6.26869 5.77012L6.2687 5.77011L5.82951 5.32544ZM4.875 7.75C4.875 8.09518 5.15482 8.375 5.5 8.375C5.84518 8.375 6.125 8.09518 6.125 7.75H4.875ZM14.1705 5.32544L13.7313 5.77012L13.7313 5.77012L14.1705 5.32544ZM13.875 7.75C13.875 8.09518 14.1548 8.375 14.5 8.375C14.8452 8.375 15.125 8.09518 15.125 7.75H13.875ZM7.42857 14.375C7.08339 14.375 6.80357 14.6548 6.80357 15C6.80357 15.3452 7.08339 15.625 7.42857 15.625V14.375ZM12.5714 15.625C12.9166 15.625 13.1964 15.3452 13.1964 15C13.1964 14.6548 12.9166 14.375 12.5714 14.375V15.625ZM10 4.375H7.75V5.625H10V4.375ZM7.75 4.375C7.23713 4.375 6.79036 4.3737 6.4333 4.42112C6.05904 4.47081 5.69084 4.58395 5.39031 4.88076L6.2687 5.77011C6.29768 5.74149 6.35939 5.6919 6.59784 5.66024C6.85348 5.6263 7.20221 5.625 7.75 5.625V4.375ZM5.39032 4.88076C5.08872 5.17863 4.97272 5.54542 4.9219 5.91873C4.87364 6.27325 4.875 6.71632 4.875 7.22222H6.125C6.125 6.68056 6.12636 6.33795 6.16048 6.08733C6.19204 5.8555 6.24079 5.79768 6.26869 5.77012L5.39032 4.88076ZM4.875 7.22222V7.75H6.125V7.22222H4.875ZM10 5.625H12.25V4.375H10V5.625ZM12.25 5.625C12.7978 5.625 13.1465 5.6263 13.4022 5.66024C13.6406 5.6919 13.7023 5.74149 13.7313 5.77012L14.6097 4.88076C14.3091 4.58395 13.9409 4.47081 13.5667 4.42112C13.2096 4.3737 12.7629 4.375 12.25 4.375V5.625ZM13.7313 5.77012C13.7592 5.79768 13.808 5.8555 13.8395 6.08733C13.8736 6.33796 13.875 6.68056 13.875 7.22222H15.125C15.125 6.71632 15.1264 6.27325 15.0781 5.91873C15.0273 5.54542 14.9113 5.17863 14.6097 4.88075L13.7313 5.77012ZM13.875 7.22222V7.75H15.125V7.22222H13.875ZM9.375 5V15H10.625V5H9.375ZM7.42857 15.625H12.5714V14.375H7.42857V15.625ZM4 2.625H16V1.375H4V2.625ZM17.375 4V16H18.625V4H17.375ZM16 17.375H4V18.625H16V17.375ZM2.625 16V4H1.375V16H2.625ZM4 17.375C3.24061 17.375 2.625 16.7594 2.625 16H1.375C1.375 17.4497 2.55025 18.625 4 18.625V17.375ZM17.375 16C17.375 16.7594 16.7594 17.375 16 17.375V18.625C17.4497 18.625 18.625 17.4497 18.625 16H17.375ZM16 2.625C16.7594 2.625 17.375 3.24061 17.375 4H18.625C18.625 2.55025 17.4497 1.375 16 1.375V2.625ZM4 1.375C2.55025 1.375 1.375 2.55025 1.375 4H2.625C2.625 3.24061 3.24061 2.625 4 2.625V1.375Z" fill="#1F2329"/>
</svg>
