<svg width="20" height="20" viewBox="0 0 20 20" fill="none" xmlns="http://www.w3.org/2000/svg">
<path d="M5.2002 8.4V6.8C5.2002 4.14903 7.34923 2 10.0002 2C12.2368 2 14.1161 3.52973 14.649 5.6M10 12V15M2 13.2C2 10.9373 2 9.80592 2.70294 9.10296C3.40589 8.4 4.53726 8.4 6.8 8.4H13.2C15.4627 8.4 16.5941 8.4 17.297 9.10296C18 9.80592 18 10.9373 18 13.2C18 15.4627 18 16.5941 17.297 17.297C16.5941 18 15.4627 18 13.2 18H6.8C4.53726 18 3.40589 18 2.70294 17.297C2 16.5941 2 15.4627 2 13.2Z" stroke="#1F2329" stroke-width="1.25" stroke-linecap="round"/>
</svg>
