<svg width="20" height="20" viewBox="0 0 20 20" fill="none" xmlns="http://www.w3.org/2000/svg">
<path d="M18 8C18 5.30627 18 3.6733 17.219 2.83648C16.4379 1.99958 15.1808 1.99958 12.6667 1.99958H7.33331C6.4564 1.99958 5.73241 1.99958 5.12821 2.0351M2 8C2 5.30634 2 3.6733 2.7811 2.83648C2.87244 2.73862 2.97028 2.6522 3.07588 2.57588M10 18V9.5M10 6L14 10.0384M6 10.0384L8.25837 7.75837M2 1.5L3.07588 2.57588M18 17.5L10 9.5M8.25837 7.75837L10 9.5M8.25837 7.75837L3.07588 2.57588" stroke="#1F2329" stroke-width="1.25" stroke-linecap="round"/>
</svg>
