<svg width="20" height="20" viewBox="0 0 20 20" fill="none" xmlns="http://www.w3.org/2000/svg">
<path d="M2 9.59373C2 6.92268 2 5.58712 2.7263 4.68821C2.85932 4.52362 3.00784 4.37277 3.16989 4.23767C4.05495 3.5 5.36992 3.5 7.99979 3.5C10.6297 3.5 11.9446 3.5 12.8298 4.23767C12.9917 4.37277 13.1403 4.52362 13.2733 4.68821C13.9997 5.58712 13.9997 6.92268 13.9997 9.59373V10.4063C13.9997 13.0773 13.9997 14.4129 13.2733 15.3118C13.1403 15.4764 12.9917 15.6272 12.8298 15.7623C11.9446 16.5 10.6297 16.5 7.99979 16.5C5.36992 16.5 4.05495 16.5 3.16989 15.7623C3.00784 15.6272 2.85932 15.4764 2.7263 15.3118C2 14.4129 2 13.0773 2 10.4063V9.59373Z" stroke="#1F2329" stroke-width="1.25"/>
<path d="M14 7.96878L14.5267 7.70132C16.0832 6.91085 16.8617 6.51557 17.4308 6.87282C17.9998 7.22999 17.9998 8.11383 17.9998 9.88151V10.1186C17.9998 11.8863 17.9998 12.77 17.4308 13.1273C16.8617 13.4845 16.0832 13.0892 14.5267 12.2988L14 12.0313V7.96878Z" stroke="#1F2329" stroke-width="1.25"/>
</svg>
