<svg width="20" height="20" viewBox="0 0 20 20" fill="none" xmlns="http://www.w3.org/2000/svg">
<path d="M6.00098 5.20117C6.00098 5.64289 5.64289 6.00098 5.20117 6.00098C4.75946 6.00098 4.40137 5.64289 4.40137 5.20117C4.40137 4.75946 4.75946 4.40137 5.20117 4.40137C5.64289 4.40137 6.00098 4.75946 6.00098 5.20117Z" fill="#1F2329"/>
<path d="M8.40039 5.20117C8.40039 5.64289 8.0423 6.00098 7.60059 6.00098C7.15887 6.00098 6.80078 5.64289 6.80078 5.20117C6.80078 4.75946 7.15887 4.40137 7.60059 4.40137C8.0423 4.40137 8.40039 4.75946 8.40039 5.20117Z" fill="#1F2329"/>
<path d="M10.7998 5.20117C10.7998 5.64289 10.4417 6.00098 10 6.00098C9.55827 6.00098 9.20019 5.64289 9.20019 5.20117C9.20019 4.75946 9.55827 4.40137 10 4.40137C10.4417 4.40137 10.7998 4.75946 10.7998 5.20117Z" fill="#1F2329"/>
<path d="M2.00195 8.00049H17.998M7.60059 17.982L7.60059 8.00049M2.00195 10C2.00195 6.22968 2.00195 4.34453 3.17324 3.17324C4.34453 2.00195 6.22968 2.00195 10 2.00195C13.7703 2.00195 15.6555 2.00195 16.8267 3.17324C17.998 4.34453 17.998 6.22968 17.998 10C17.998 13.7703 17.998 15.6555 16.8267 16.8267C15.6555 17.998 13.7703 17.998 10 17.998C6.22968 17.998 4.34453 17.998 3.17324 16.8267C2.00195 15.6555 2.00195 13.7703 2.00195 10Z" stroke="#1F2329" stroke-width="1.25" stroke-linecap="round"/>
</svg>
