<svg width="14" height="14" viewBox="0 0 14 14" fill="none" xmlns="http://www.w3.org/2000/svg">
    <path d="M6.97318 10.8715C6.80459 10.8715 6.6429 10.8045 6.52369 10.6853C6.40447 10.5661 6.3375 10.4044 6.3375 10.2358C6.3375 10.0672 6.40447 9.9055 6.52369 9.78629C6.6429 9.66707 6.80459 9.6001 6.97318 9.6001C7.14178 9.6001 7.30347 9.66707 7.42268 9.78629C7.5419 9.9055 7.60887 10.0672 7.60887 10.2358C7.60887 10.4044 7.5419 10.5661 7.42268 10.6853C7.30347 10.8045 7.14178 10.8715 6.97318 10.8715ZM5.25468 5.86429C5.19185 5.86384 5.12982 5.85009 5.07268 5.82397C5.01553 5.79784 4.96456 5.75991 4.92311 5.71268C4.88167 5.66545 4.85069 5.60998 4.8322 5.54993C4.81372 5.48987 4.80815 5.42658 4.81587 5.36422C4.84475 5.11704 4.89068 4.91491 4.95368 4.75785C5.06048 4.49753 5.22663 4.26576 5.43887 4.08104C5.65436 3.88627 5.90686 3.73689 6.18131 3.64179C6.4595 3.54642 6.75174 3.4985 7.04581 3.50004C7.65831 3.50004 8.168 3.68029 8.57575 4.04122C8.9835 4.40085 9.18781 4.88122 9.18781 5.4806C9.18781 5.7501 9.13531 5.99422 9.03031 6.21297C8.92618 6.43216 8.70393 6.70516 8.364 7.03153C8.02318 7.35835 7.79831 7.59066 7.68675 7.72891C7.57116 7.87576 7.48554 8.04388 7.43475 8.22372C7.40412 8.32478 7.38225 8.44422 7.37043 8.5816C7.34943 8.81347 7.16306 8.99722 6.93031 8.99722C6.8684 8.99685 6.80724 8.98357 6.75075 8.95823C6.69426 8.93289 6.64367 8.89606 6.60222 8.85007C6.56076 8.80409 6.52935 8.74997 6.50998 8.69116C6.49062 8.63235 6.48372 8.57015 6.48975 8.50853C6.50506 8.34928 6.52825 8.2106 6.56062 8.09247C6.62056 7.86716 6.71156 7.67028 6.83318 7.50185C6.95437 7.33297 7.17312 7.08535 7.48943 6.75854C7.80618 6.43216 8.01006 6.19416 8.10193 6.04672C8.19206 5.89841 8.287 5.65735 8.287 5.36422C8.287 5.0711 8.13256 4.83266 7.92475 4.60691C7.71562 4.38116 7.41243 4.26785 7.01475 4.26785C6.23862 4.26785 5.7985 4.66729 5.69525 5.46616C5.66593 5.69104 5.48306 5.86429 5.25643 5.86429H5.25468Z"
          fill="#1F2329"/>
    <circle cx="7" cy="7" r="6.5" stroke="#1F2329"/>
</svg>