<svg width="17" height="16" viewBox="0 0 17 16" fill="none" xmlns="http://www.w3.org/2000/svg">
    <path d="M3.15283 5.45141C2.44906 4.74764 2.44906 3.6066 3.15283 2.90283C3.8566 2.19906 4.99764 2.19906 5.70141 2.90283L13.3472 10.5486C14.0509 11.2524 14.0509 12.3934 13.3472 13.0972C12.6434 13.8009 11.5024 13.8009 10.7986 13.0972L3.15283 5.45141Z"
          stroke="currentColor"/>
    <path d="M4.5 6.75L7 4.25" stroke="currentColor" stroke-linecap="round"/>
    <path d="M10.8125 1.942C10.9131 1.686 11.274 1.686 11.3746 1.942L11.6436 2.62655C11.6744 2.7047 11.736 2.76657 11.8139 2.7974L12.4959 3.06738C12.7509 3.16834 12.7509 3.53063 12.4959 3.63159L11.8139 3.90158C11.736 3.9324 11.6744 3.99426 11.6436 4.07242L11.3747 4.75697C11.274 5.01296 10.9131 5.01296 10.8125 4.75698L10.5435 4.07242C10.5128 3.99426 10.4512 3.9324 10.3733 3.90158L9.6913 3.63159C9.43623 3.53063 9.43623 3.16834 9.6913 3.06738L10.3733 2.7974C10.4512 2.76657 10.5128 2.7047 10.5435 2.62655L10.8125 1.942Z"
          fill="currentColor"/>
    <path d="M13.2297 6.20566C13.3303 5.94967 13.6913 5.94967 13.7919 6.20566L13.8899 6.45526C13.9207 6.53341 13.9823 6.59528 14.0602 6.6261L14.3088 6.72454C14.5639 6.82551 14.5639 7.18782 14.3088 7.28876L14.0602 7.38719C13.9823 7.41801 13.9207 7.47988 13.8899 7.55801L13.7919 7.80763C13.6913 8.06363 13.3303 8.06363 13.2297 7.80763L13.1317 7.55801C13.1009 7.47988 13.0393 7.41801 12.9614 7.38719L12.7127 7.28876C12.4577 7.18782 12.4577 6.82551 12.7127 6.72454L12.9614 6.6261C13.0393 6.59528 13.1009 6.53341 13.1317 6.45526L13.2297 6.20566Z"
          fill="currentColor"/>
    <path d="M3.95825 10.067C4.05884 9.811 4.41979 9.811 4.52038 10.067L4.61846 10.3166C4.64917 10.3947 4.71081 10.4566 4.78867 10.4874L5.03734 10.5859C5.29239 10.6868 5.29239 11.0491 5.03734 11.1501L4.78867 11.2485C4.71081 11.2793 4.64917 11.3412 4.61846 11.4194L4.52038 11.6689C4.41979 11.9249 4.05884 11.9249 3.95825 11.6689L3.86017 11.4194C3.82946 11.3412 3.76782 11.2793 3.68996 11.2485L3.44129 11.1501C3.18624 11.0491 3.18624 10.6868 3.44129 10.5859L3.68996 10.4874C3.76782 10.4566 3.82946 10.3947 3.86017 10.3166L3.95825 10.067Z"
          fill="currentColor"/>
</svg>
